<svg class="toyplot-canvas-Canvas" height="600.0px" id="t44909c3f4adf4ac99889b7145980ebee" preserveAspectRatio="xMidYMid meet" style="background-color:transparent;border-color:#292724;border-style:none;border-width:1.0;fill:rgb(16.1%,15.3%,14.1%);fill-opacity:1.0;font-family:Helvetica;font-size:12px;opacity:1.0;stroke:rgb(16.1%,15.3%,14.1%);stroke-opacity:1.0;stroke-width:1.0" viewBox="0 0 400.0 600.0" width="400.0px" xmlns="http://www.w3.org/2000/svg" xmlns:toyplot="http://www.sandia.gov/toyplot" xmlns:xlink="http://www.w3.org/1999/xlink"><g class="toyplot-coordinates-Cartesian" id="teba638e34af84496b46b93202ef2b514"><clipPath id="t9ecdc69129904d3ca6f3ca91adee7133"><rect height="540.0" width="340.0" x="30.0" y="30.0" /></clipPath><g clip-path="url(#t9ecdc69129904d3ca6f3ca91adee7133)"><g class="toytree-mark-Toytree" id="t871621a9ac3c48c59f96df53c2d298ad"><g class="toytree-Edges" style="fill:none;stroke:rgb(14.9%,14.9%,14.9%);stroke-linecap:round;stroke-opacity:1;stroke-width:2"><path d="M 50.0 104.8 L 50.0 148.1 L 105.2 148.1" id="78,77" /><path d="M 105.2 148.1 L 105.2 94.7 L 121.5 94.7" id="77,76" /><path d="M 105.2 148.1 L 105.2 201.4 L 115.9 201.4" id="77,75" /><path d="M 121.5 94.7 L 121.5 79.8 L 132.5 79.8" id="76,74" /><path d="M 121.5 94.7 L 121.5 109.6 L 129.8 109.6" id="76,73" /><path d="M 115.9 201.4 L 115.9 243.5 L 126.1 243.5" id="75,72" /><path d="M 129.8 109.6 L 129.8 121.1 L 138.0 121.1" id="73,71" /><path d="M 126.1 243.5 L 126.1 185.3 L 133.2 185.3" id="72,70" /><path d="M 126.1 243.5 L 126.1 301.7 L 135.2 301.7" id="72,69" /><path d="M 138.0 121.1 L 138.0 131.8 L 144.8 131.8" id="71,68" /><path d="M 133.2 185.3 L 133.2 199.1 L 138.7 199.1" id="70,67" /><path d="M 135.2 301.7 L 135.2 264.8 L 141.0 264.8" id="69,66" /><path d="M 135.2 301.7 L 135.2 338.5 L 140.8 338.5" id="69,65" /><path d="M 144.8 131.8 L 144.8 141.0 L 153.1 141.0" id="68,64" /><path d="M 138.7 199.1 L 138.7 214.4 L 146.3 214.4" id="67,63" /><path d="M 141.0 264.8 L 141.0 251.1 L 150.7 251.1" id="66,62" /><path d="M 141.0 264.8 L 141.0 278.6 L 145.3 278.6" id="66,61" /><path d="M 140.8 338.5 L 140.8 315.3 L 156.3 315.3" id="65,60" /><path d="M 140.8 338.5 L 140.8 361.7 L 148.1 361.7" id="65,59" /><path d="M 146.3 214.4 L 146.3 202.1 L 153.8 202.1" id="63,58" /><path d="M 146.3 214.4 L 146.3 226.6 L 154.6 226.6" id="63,57" /><path d="M 145.3 278.6 L 145.3 287.8 L 151.9 287.8" id="61,56" /><path d="M 156.3 315.3 L 156.3 324.5 L 186.1 324.5" id="60,55" /><path d="M 148.1 361.7 L 148.1 380.7 L 155.0 380.7" id="59,54" /><path d="M 155.0 380.7 L 155.0 406.3 L 174.5 406.3" id="54,53" /><path d="M 174.5 406.3 L 174.5 445.3 L 193.5 445.3" id="53,52" /><path d="M 193.5 445.3 L 193.5 407.0 L 199.0 407.0" id="52,51" /><path d="M 193.5 445.3 L 193.5 483.5 L 199.4 483.5" id="52,50" /><path d="M 199.0 407.0 L 199.0 388.7 L 203.8 388.7" id="51,49" /><path d="M 199.0 407.0 L 199.0 425.4 L 205.1 425.4" id="51,48" /><path d="M 199.4 483.5 L 199.4 462.1 L 204.6 462.1" id="50,47" /><path d="M 199.4 483.5 L 199.4 504.9 L 204.8 504.9" id="50,46" /><path d="M 203.8 388.7 L 203.8 397.9 L 208.3 397.9" id="49,45" /><path d="M 205.1 425.4 L 205.1 434.6 L 211.2 434.6" id="48,44" /><path d="M 204.6 462.1 L 204.6 471.3 L 210.1 471.3" id="47,43" /><path d="M 204.8 504.9 L 204.8 520.2 L 209.6 520.2" id="46,42" /><path d="M 209.6 520.2 L 209.6 508.0 L 214.8 508.0" id="42,41" /><path d="M 209.6 520.2 L 209.6 532.4 L 220.7 532.4" id="42,40" /><path d="M 50.0 104.8 L 50.0 61.5 L 105.2 61.5" id="78,39" /><path d="M 132.5 79.8 L 132.5 73.7 L 189.2 73.7" id="74,38" /><path d="M 132.5 79.8 L 132.5 85.9 L 183.8 85.9" id="74,37" /><path d="M 129.8 109.6 L 129.8 98.2 L 181.5 98.2" id="73,36" /><path d="M 138.0 121.1 L 138.0 110.4 L 178.2 110.4" id="71,35" /><path d="M 144.8 131.8 L 144.8 122.6 L 196.2 122.6" id="68,34" /><path d="M 153.1 141.0 L 153.1 134.9 L 194.7 134.9" id="64,33" /><path d="M 153.1 141.0 L 153.1 147.1 L 198.6 147.1" id="64,32" /><path d="M 115.9 201.4 L 115.9 159.3 L 180.6 159.3" id="75,31" /><path d="M 133.2 185.3 L 133.2 171.6 L 208.1 171.6" id="70,30" /><path d="M 138.7 199.1 L 138.7 183.8 L 190.6 183.8" id="67,29" /><path d="M 153.8 202.1 L 153.8 196.0 L 185.0 196.0" id="58,28" /><path d="M 153.8 202.1 L 153.8 208.3 L 197.8 208.3" id="58,27" /><path d="M 154.6 226.6 L 154.6 220.5 L 201.6 220.5" id="57,26" /><path d="M 154.6 226.6 L 154.6 232.7 L 189.1 232.7" id="57,25" /><path d="M 150.7 251.1 L 150.7 245.0 L 209.5 245.0" id="62,24" /><path d="M 150.7 251.1 L 150.7 257.2 L 212.1 257.2" id="62,23" /><path d="M 145.3 278.6 L 145.3 269.4 L 188.1 269.4" id="61,22" /><path d="M 151.9 287.8 L 151.9 281.7 L 178.4 281.7" id="56,21" /><path d="M 151.9 287.8 L 151.9 293.9 L 181.7 293.9" id="56,20" /><path d="M 156.3 315.3 L 156.3 306.1 L 198.2 306.1" id="60,19" /><path d="M 186.1 324.5 L 186.1 318.3 L 227.7 318.3" id="55,18" /><path d="M 186.1 324.5 L 186.1 330.6 L 211.1 330.6" id="55,17" /><path d="M 148.1 361.7 L 148.1 342.8 L 206.3 342.8" id="59,16" /><path d="M 155.0 380.7 L 155.0 355.0 L 204.6 355.0" id="54,15" /><path d="M 174.5 406.3 L 174.5 367.3 L 210.5 367.3" id="53,14" /><path d="M 203.8 388.7 L 203.8 379.5 L 233.0 379.5" id="49,13" /><path d="M 208.3 397.9 L 208.3 391.7 L 225.9 391.7" id="45,12" /><path d="M 208.3 397.9 L 208.3 404.0 L 240.9 404.0" id="45,11" /><path d="M 205.1 425.4 L 205.1 416.2 L 224.3 416.2" id="48,10" /><path d="M 211.2 434.6 L 211.2 428.4 L 238.6 428.4" id="44,9" /><path d="M 211.2 434.6 L 211.2 440.7 L 239.9 440.7" id="44,8" /><path d="M 204.6 462.1 L 204.6 452.9 L 229.0 452.9" id="47,7" /><path d="M 210.1 471.3 L 210.1 465.1 L 234.7 465.1" id="43,6" /><path d="M 210.1 471.3 L 210.1 477.4 L 238.7 477.4" id="43,5" /><path d="M 204.8 504.9 L 204.8 489.6 L 235.0 489.6" id="46,4" /><path d="M 214.8 508.0 L 214.8 501.8 L 237.8 501.8" id="41,3" /><path d="M 214.8 508.0 L 214.8 514.1 L 241.4 514.1" id="41,2" /><path d="M 220.7 532.4 L 220.7 526.3 L 256.4 526.3" id="40,1" /><path d="M 220.7 532.4 L 220.7 538.5 L 255.2 538.5" id="40,0" /></g><g class="toytree-AlignEdges" style="stroke:rgb(66.3%,66.3%,66.3%);stroke-dasharray:2, 4;stroke-linecap:round;stroke-opacity:1.0;stroke-width:2"><path d="M 256.4 538.5 L 255.2 538.5" /><path d="M 256.4 526.3 L 256.4 526.3" /><path d="M 256.4 514.1 L 241.4 514.1" /><path d="M 256.4 501.8 L 237.8 501.8" /><path d="M 256.4 489.6 L 235.0 489.6" /><path d="M 256.4 477.4 L 238.7 477.4" /><path d="M 256.4 465.1 L 234.7 465.1" /><path d="M 256.4 452.9 L 229.0 452.9" /><path d="M 256.4 440.7 L 239.9 440.7" /><path d="M 256.4 428.4 L 238.6 428.4" /><path d="M 256.4 416.2 L 224.3 416.2" /><path d="M 256.4 404.0 L 240.9 404.0" /><path d="M 256.4 391.7 L 225.9 391.7" /><path d="M 256.4 379.5 L 233.0 379.5" /><path d="M 256.4 367.3 L 210.5 367.3" /><path d="M 256.4 355.0 L 204.6 355.0" /><path d="M 256.4 342.8 L 206.3 342.8" /><path d="M 256.4 330.6 L 211.1 330.6" /><path d="M 256.4 318.3 L 227.7 318.3" /><path d="M 256.4 306.1 L 198.2 306.1" /><path d="M 256.4 293.9 L 181.7 293.9" /><path d="M 256.4 281.7 L 178.4 281.7" /><path d="M 256.4 269.4 L 188.1 269.4" /><path d="M 256.4 257.2 L 212.1 257.2" /><path d="M 256.4 245.0 L 209.5 245.0" /><path d="M 256.4 232.7 L 189.1 232.7" /><path d="M 256.4 220.5 L 201.6 220.5" /><path d="M 256.4 208.3 L 197.8 208.3" /><path d="M 256.4 196.0 L 185.0 196.0" /><path d="M 256.4 183.8 L 190.6 183.8" /><path d="M 256.4 171.6 L 208.1 171.6" /><path d="M 256.4 159.3 L 180.6 159.3" /><path d="M 256.4 147.1 L 198.6 147.1" /><path d="M 256.4 134.9 L 194.7 134.9" /><path d="M 256.4 122.6 L 196.2 122.6" /><path d="M 256.4 110.4 L 178.2 110.4" /><path d="M 256.4 98.2 L 181.5 98.2" /><path d="M 256.4 85.9 L 183.8 85.9" /><path d="M 256.4 73.7 L 189.2 73.7" /><path d="M 256.4 61.5 L 105.2 61.5" /></g><g class="toytree-Nodes" style="fill:rgb(40%,76.1%,64.7%);fill-opacity:1.0;stroke:rgb(0%,0%,0%);stroke-opacity:1.0;stroke-width:1"><g fill="rgb(100%,100%,100%)" fill-opacity="1.0" id="node-0" transform="translate(255.155,538.550)"><circle r="0.0" /></g><g fill="rgb(100%,100%,100%)" fill-opacity="1.0" id="node-1" transform="translate(256.363,526.316)"><circle r="0.0" /></g><g fill="rgb(100%,100%,100%)" fill-opacity="1.0" id="node-2" transform="translate(241.439,514.083)"><circle r="0.0" /></g><g fill="rgb(100%,100%,100%)" fill-opacity="1.0" id="node-3" transform="translate(237.844,501.850)"><circle r="0.0" /></g><g fill="rgb(100%,100%,100%)" fill-opacity="1.0" id="node-4" transform="translate(235.009,489.616)"><circle r="0.0" /></g><g fill="rgb(100%,100%,100%)" fill-opacity="1.0" id="node-5" transform="translate(238.677,477.383)"><circle r="0.0" /></g><g fill="rgb(100%,100%,100%)" fill-opacity="1.0" id="node-6" transform="translate(234.708,465.150)"><circle r="0.0" /></g><g fill="rgb(100%,100%,100%)" fill-opacity="1.0" id="node-7" transform="translate(228.979,452.916)"><circle r="0.0" /></g><g fill="rgb(100%,100%,100%)" fill-opacity="1.0" id="node-8" transform="translate(239.869,440.683)"><circle r="0.0" /></g><g fill="rgb(100%,100%,100%)" fill-opacity="1.0" id="node-9" transform="translate(238.582,428.450)"><circle r="0.0" /></g><g fill="rgb(100%,100%,100%)" fill-opacity="1.0" id="node-10" transform="translate(224.264,416.216)"><circle r="0.0" /></g><g fill="rgb(100%,100%,100%)" fill-opacity="1.0" id="node-11" transform="translate(240.864,403.983)"><circle r="0.0" /></g><g fill="rgb(100%,100%,100%)" fill-opacity="1.0" id="node-12" transform="translate(225.946,391.750)"><circle r="0.0" /></g><g fill="rgb(100%,100%,100%)" fill-opacity="1.0" id="node-13" transform="translate(232.987,379.517)"><circle r="0.0" /></g><g fill="rgb(100%,100%,100%)" fill-opacity="1.0" id="node-14" transform="translate(210.539,367.283)"><circle r="0.0" /></g><g fill="rgb(100%,100%,100%)" fill-opacity="1.0" id="node-15" transform="translate(204.628,355.050)"><circle r="0.0" /></g><g fill="rgb(100%,100%,100%)" fill-opacity="1.0" id="node-16" transform="translate(206.330,342.817)"><circle r="0.0" /></g><g fill="rgb(100%,100%,100%)" fill-opacity="1.0" id="node-17" transform="translate(211.081,330.583)"><circle r="0.0" /></g><g fill="rgb(100%,100%,100%)" fill-opacity="1.0" id="node-18" transform="translate(227.720,318.350)"><circle r="0.0" /></g><g fill="rgb(100%,100%,100%)" fill-opacity="1.0" id="node-19" transform="translate(198.174,306.117)"><circle r="0.0" /></g><g fill="rgb(100%,100%,100%)" fill-opacity="1.0" id="node-20" transform="translate(181.708,293.883)"><circle r="0.0" /></g><g fill="rgb(100%,100%,100%)" fill-opacity="1.0" id="node-21" transform="translate(178.431,281.650)"><circle r="0.0" /></g><g fill="rgb(100%,100%,100%)" fill-opacity="1.0" id="node-22" transform="translate(188.115,269.417)"><circle r="0.0" /></g><g fill="rgb(100%,100%,100%)" fill-opacity="1.0" id="node-23" transform="translate(212.101,257.183)"><circle r="0.0" /></g><g fill="rgb(100%,100%,100%)" fill-opacity="1.0" id="node-24" transform="translate(209.468,244.950)"><circle r="0.0" /></g><g fill="rgb(100%,100%,100%)" fill-opacity="1.0" id="node-25" transform="translate(189.100,232.717)"><circle r="0.0" /></g><g fill="rgb(100%,100%,100%)" fill-opacity="1.0" id="node-26" transform="translate(201.628,220.483)"><circle r="0.0" /></g><g fill="rgb(100%,100%,100%)" fill-opacity="1.0" id="node-27" transform="translate(197.820,208.250)"><circle r="0.0" /></g><g fill="rgb(100%,100%,100%)" fill-opacity="1.0" id="node-28" transform="translate(184.992,196.017)"><circle r="0.0" /></g><g fill="rgb(100%,100%,100%)" fill-opacity="1.0" id="node-29" transform="translate(190.604,183.784)"><circle r="0.0" /></g><g fill="rgb(100%,100%,100%)" fill-opacity="1.0" id="node-30" transform="translate(208.089,171.550)"><circle r="0.0" /></g><g fill="rgb(100%,100%,100%)" fill-opacity="1.0" id="node-31" transform="translate(180.599,159.317)"><circle r="0.0" /></g><g fill="rgb(100%,100%,100%)" fill-opacity="1.0" id="node-32" transform="translate(198.639,147.084)"><circle r="0.0" /></g><g fill="rgb(100%,100%,100%)" fill-opacity="1.0" id="node-33" transform="translate(194.677,134.850)"><circle r="0.0" /></g><g fill="rgb(100%,100%,100%)" fill-opacity="1.0" id="node-34" transform="translate(196.234,122.617)"><circle r="0.0" /></g><g fill="rgb(100%,100%,100%)" fill-opacity="1.0" id="node-35" transform="translate(178.213,110.384)"><circle r="0.0" /></g><g fill="rgb(100%,100%,100%)" fill-opacity="1.0" id="node-36" transform="translate(181.458,98.150)"><circle r="0.0" /></g><g fill="rgb(100%,100%,100%)" fill-opacity="1.0" id="node-37" transform="translate(183.796,85.917)"><circle r="0.0" /></g><g fill="rgb(100%,100%,100%)" fill-opacity="1.0" id="node-38" transform="translate(189.223,73.684)"><circle r="0.0" /></g><g fill="rgb(100%,100%,100%)" fill-opacity="1.0" id="node-39" transform="translate(105.184,61.450)"><circle r="0.0" /></g><g fill="rgb(0%,0%,0%)" fill-opacity="1.0" id="node-40" transform="translate(220.694,532.433)"><circle r="3.0" /></g><g fill="rgb(0%,0%,0%)" fill-opacity="1.0" id="node-41" transform="translate(214.841,507.966)"><circle r="3.0" /></g><g fill="rgb(0%,0%,0%)" fill-opacity="1.0" id="node-42" transform="translate(209.645,520.200)"><circle r="3.0" /></g><g fill="rgb(0%,0%,0%)" fill-opacity="1.0" id="node-43" transform="translate(210.123,471.266)"><circle r="3.0" /></g><g fill="rgb(0%,0%,0%)" fill-opacity="1.0" id="node-44" transform="translate(211.229,434.566)"><circle r="3.0" /></g><g fill="rgb(0%,0%,0%)" fill-opacity="1.0" id="node-45" transform="translate(208.335,397.867)"><circle r="3.0" /></g><g fill="rgb(0%,0%,0%)" fill-opacity="1.0" id="node-46" transform="translate(204.760,504.908)"><circle r="3.0" /></g><g fill="rgb(0%,0%,0%)" fill-opacity="1.0" id="node-47" transform="translate(204.566,462.091)"><circle r="3.0" /></g><g fill="rgb(0%,0%,0%)" fill-opacity="1.0" id="node-48" transform="translate(205.128,425.391)"><circle r="3.0" /></g><g fill="rgb(100%,100%,100%)" fill-opacity="1.0" id="node-49" transform="translate(203.796,388.692)"><circle r="3.0" /></g><g fill="rgb(0%,0%,0%)" fill-opacity="1.0" id="node-50" transform="translate(199.408,483.500)"><circle r="3.0" /></g><g fill="rgb(0%,0%,0%)" fill-opacity="1.0" id="node-51" transform="translate(199.015,407.041)"><circle r="3.0" /></g><g fill="rgb(0%,0%,0%)" fill-opacity="1.0" id="node-52" transform="translate(193.501,445.271)"><circle r="3.0" /></g><g fill="rgb(0%,0%,0%)" fill-opacity="1.0" id="node-53" transform="translate(174.527,406.277)"><circle r="3.0" /></g><g fill="rgb(0%,0%,0%)" fill-opacity="1.0" id="node-54" transform="translate(155.007,380.663)"><circle r="3.0" /></g><g fill="rgb(0%,0%,0%)" fill-opacity="1.0" id="node-55" transform="translate(186.121,324.467)"><circle r="3.0" /></g><g fill="rgb(0%,0%,0%)" fill-opacity="1.0" id="node-56" transform="translate(151.924,287.767)"><circle r="3.0" /></g><g fill="rgb(0%,0%,0%)" fill-opacity="1.0" id="node-57" transform="translate(154.648,226.600)"><circle r="3.0" /></g><g fill="rgb(0%,0%,0%)" fill-opacity="1.0" id="node-58" transform="translate(153.791,202.133)"><circle r="3.0" /></g><g fill="rgb(0%,0%,0%)" fill-opacity="1.0" id="node-59" transform="translate(148.081,361.740)"><circle r="3.0" /></g><g fill="rgb(0%,0%,0%)" fill-opacity="1.0" id="node-60" transform="translate(156.255,315.292)"><circle r="3.0" /></g><g fill="rgb(100%,100%,100%)" fill-opacity="1.0" id="node-61" transform="translate(145.267,278.592)"><circle r="3.0" /></g><g fill="rgb(100%,100%,100%)" fill-opacity="1.0" id="node-62" transform="translate(150.712,251.067)"><circle r="3.0" /></g><g fill="rgb(0%,0%,0%)" fill-opacity="1.0" id="node-63" transform="translate(146.348,214.367)"><circle r="3.0" /></g><g fill="rgb(0%,0%,0%)" fill-opacity="1.0" id="node-64" transform="translate(153.086,140.967)"><circle r="3.0" /></g><g fill="rgb(100%,100%,100%)" fill-opacity="1.0" id="node-65" transform="translate(140.828,338.516)"><circle r="3.0" /></g><g fill="rgb(100%,100%,100%)" fill-opacity="1.0" id="node-66" transform="translate(140.994,264.829)"><circle r="3.0" /></g><g fill="rgb(0%,0%,0%)" fill-opacity="1.0" id="node-67" transform="translate(138.712,199.075)"><circle r="3.0" /></g><g fill="rgb(100%,100%,100%)" fill-opacity="1.0" id="node-68" transform="translate(144.833,131.792)"><circle r="3.0" /></g><g fill="rgb(0%,0%,0%)" fill-opacity="1.0" id="node-69" transform="translate(135.187,301.673)"><circle r="3.0" /></g><g fill="rgb(0%,0%,0%)" fill-opacity="1.0" id="node-70" transform="translate(133.162,185.313)"><circle r="3.0" /></g><g fill="rgb(0%,0%,0%)" fill-opacity="1.0" id="node-71" transform="translate(137.994,121.088)"><circle r="3.0" /></g><g fill="rgb(0%,0%,0%)" fill-opacity="1.0" id="node-72" transform="translate(126.130,243.493)"><circle r="3.0" /></g><g fill="rgb(0%,0%,0%)" fill-opacity="1.0" id="node-73" transform="translate(129.800,109.619)"><circle r="3.0" /></g><g fill="rgb(0%,0%,0%)" fill-opacity="1.0" id="node-74" transform="translate(132.457,79.800)"><circle r="3.0" /></g><g fill="rgb(0%,0%,0%)" fill-opacity="1.0" id="node-75" transform="translate(115.927,201.405)"><circle r="3.0" /></g><g fill="rgb(0%,0%,0%)" fill-opacity="1.0" id="node-76" transform="translate(121.520,94.710)"><circle r="3.0" /></g><g fill="rgb(0%,0%,0%)" fill-opacity="1.0" id="node-77" transform="translate(105.184,148.057)"><circle r="3.0" /></g><g fill="rgb(0%,0%,0%)" fill-opacity="1.0" id="node-78" transform="translate(50.000,104.754)"><circle r="0.0" /></g></g><g class="toytree-NodeLabels" style="fill:rgb(0%,0%,0%);fill-opacity:1.0;font-size:7;stroke:none;text-shadow:0.5px 0.5px #fff, -0.5px 0.5px #fff, 0.5px -0.5px #fff, -0.5px -0.5px #fff"><g transform="translate(209.90,390.48)"><text>84</text></g><g transform="translate(151.37,280.38)"><text>60</text></g><g transform="translate(156.82,252.86)"><text>53</text></g><g transform="translate(146.94,340.30)"><text>61</text></g><g transform="translate(147.10,266.62)"><text>82</text></g><g transform="translate(150.94,133.58)"><text>63</text></g></g><g class="toytree-TipLabels" style="fill:rgb(14.9%,14.9%,14.9%);fill-opacity:1.0;font-family:helvetica;font-size:10px;font-weight:normal;stroke:none;white-space:pre"><g transform="translate(256.36,538.55)rotate(0)"><text style="" x="15.00" y="2.55">V. dumatorum</text></g><g transform="translate(256.36,526.32)rotate(0)"><text style="" x="15.00" y="2.55">V. seemenii</text></g><g transform="translate(256.36,514.08)rotate(0)"><text style="" x="15.00" y="2.55">V. triphyllum_new</text></g><g transform="translate(256.36,501.85)rotate(0)"><text style="" x="15.00" y="2.55">V. reticulatum</text></g><g transform="translate(256.36,489.62)rotate(0)"><text style="" x="15.00" y="2.55">V. toronis</text></g><g transform="translate(256.36,477.38)rotate(0)"><text style="" x="15.00" y="2.55">V. jamesonii</text></g><g transform="translate(256.36,465.15)rotate(0)"><text style="" x="15.00" y="2.55">V. hallii</text></g><g transform="translate(256.36,452.92)rotate(0)"><text style="" x="15.00" y="2.55">V. pichinchense</text></g><g transform="translate(256.36,440.68)rotate(0)"><text style="" x="15.00" y="2.55">V. subsessile</text></g><g transform="translate(256.36,428.45)rotate(0)"><text style="" x="15.00" y="2.55">V. undulatum</text></g><g transform="translate(256.36,416.22)rotate(0)"><text style="" x="15.00" y="2.55">V. tinoides_1</text></g><g transform="translate(256.36,403.98)rotate(0)"><text style="" x="15.00" y="2.55">V. triphyllum</text></g><g transform="translate(256.36,391.75)rotate(0)"><text style="" x="15.00" y="2.55">V. lasiophyllum</text></g><g transform="translate(256.36,379.52)rotate(0)"><text style="" x="15.00" y="2.55">V. tinoides_2</text></g><g transform="translate(256.36,367.28)rotate(0)"><text style="" x="15.00" y="2.55">V. costaricanum</text></g><g transform="translate(256.36,355.05)rotate(0)"><text style="" x="15.00" y="2.55">V. hartwegii</text></g><g transform="translate(256.36,342.82)rotate(0)"><text style="" x="15.00" y="2.55">V. obtusatum</text></g><g transform="translate(256.36,330.58)rotate(0)"><text style="" x="15.00" y="2.55">V. villosum</text></g><g transform="translate(256.36,318.35)rotate(0)"><text style="" x="15.00" y="2.55">V. alpinum</text></g><g transform="translate(256.36,306.12)rotate(0)"><text style="" x="15.00" y="2.55">V. stellato-tomentosum</text></g><g transform="translate(256.36,293.88)rotate(0)"><text style="" x="15.00" y="2.55">V. lautum</text></g><g transform="translate(256.36,281.65)rotate(0)"><text style="" x="15.00" y="2.55">V. jucundum</text></g><g transform="translate(256.36,269.42)rotate(0)"><text style="" x="15.00" y="2.55">V. blandum</text></g><g transform="translate(256.36,257.18)rotate(0)"><text style="" x="15.00" y="2.55">V. disjunctum</text></g><g transform="translate(256.36,244.95)rotate(0)"><text style="" x="15.00" y="2.55">V. discolor</text></g><g transform="translate(256.36,232.72)rotate(0)"><text style="" x="15.00" y="2.55">V. new sp. 2</text></g><g transform="translate(256.36,220.48)rotate(0)"><text style="" x="15.00" y="2.55">V. membranaceum</text></g><g transform="translate(256.36,208.25)rotate(0)"><text style="" x="15.00" y="2.55">V. new sp. 1</text></g><g transform="translate(256.36,196.02)rotate(0)"><text style="" x="15.00" y="2.55">V. acutifolium</text></g><g transform="translate(256.36,183.78)rotate(0)"><text style="" x="15.00" y="2.55">V. microphyllum</text></g><g transform="translate(256.36,171.55)rotate(0)"><text style="" x="15.00" y="2.55">V. fuscum</text></g><g transform="translate(256.36,159.32)rotate(0)"><text style="" x="15.00" y="2.55">V. sulcatum</text></g><g transform="translate(256.36,147.08)rotate(0)"><text style="" x="15.00" y="2.55">V. ciliatum</text></g><g transform="translate(256.36,134.85)rotate(0)"><text style="" x="15.00" y="2.55">V. hirsutum</text></g><g transform="translate(256.36,122.62)rotate(0)"><text style="" x="15.00" y="2.55">V. caudatum</text></g><g transform="translate(256.36,110.38)rotate(0)"><text style="" x="15.00" y="2.55">V. microcarpum</text></g><g transform="translate(256.36,98.15)rotate(0)"><text style="" x="15.00" y="2.55">V. tiliaefolium</text></g><g transform="translate(256.36,85.92)rotate(0)"><text style="" x="15.00" y="2.55">V. loeseneri</text></g><g transform="translate(256.36,73.68)rotate(0)"><text style="" x="15.00" y="2.55">V. stenocalyx</text></g><g transform="translate(256.36,61.45)rotate(0)"><text style="" x="15.00" y="2.55">V. dentatum</text></g></g></g></g></g></svg>