<svg class="toyplot-canvas-Canvas" height="600.0px" id="te2081a46bdd24fe18530e1a188414f67" preserveAspectRatio="xMidYMid meet" style="background-color:transparent;border-color:#292724;border-style:none;border-width:1.0;fill:rgb(16.1%,15.3%,14.1%);fill-opacity:1.0;font-family:Helvetica;font-size:12px;opacity:1.0;stroke:rgb(16.1%,15.3%,14.1%);stroke-opacity:1.0;stroke-width:1.0" viewBox="0 0 400.0 600.0" width="400.0px" xmlns="http://www.w3.org/2000/svg" xmlns:toyplot="http://www.sandia.gov/toyplot" xmlns:xlink="http://www.w3.org/1999/xlink"><g class="toyplot-coordinates-Cartesian" id="t84403328c9624d39bf288f3234056074"><clipPath id="tf478f25d023940fa867b3781a896ac0d"><rect height="540.0" width="340.0" x="30.0" y="30.0" /></clipPath><g clip-path="url(#tf478f25d023940fa867b3781a896ac0d)"><g class="toytree-mark-Toytree" id="t67d7ecc39f9540bab56b66f4ae5c1769"><g class="toytree-Edges" style="fill:none;stroke:rgb(14.9%,14.9%,14.9%);stroke-linecap:round;stroke-opacity:1;stroke-width:2"><path d="M 50.0 105.7 L 50.0 150.0 L 63.7 150.0" id="74,73" /><path d="M 63.7 150.0 L 63.7 95.6 L 173.5 95.6" id="73,72" /><path d="M 63.7 150.0 L 63.7 204.5 L 77.4 204.5" id="73,71" /><path d="M 173.5 95.6 L 173.5 79.8 L 214.7 79.8" id="72,70" /><path d="M 173.5 95.6 L 173.5 111.4 L 187.2 111.4" id="72,69" /><path d="M 77.4 204.5 L 77.4 249.6 L 91.2 249.6" id="71,68" /><path d="M 187.2 111.4 L 187.2 124.7 L 200.9 124.7" id="69,67" /><path d="M 91.2 249.6 L 91.2 185.3 L 173.5 185.3" id="68,66" /><path d="M 91.2 249.6 L 91.2 314.0 L 104.9 314.0" id="68,65" /><path d="M 200.9 124.7 L 200.9 141.0 L 214.7 141.0" id="67,64" /><path d="M 173.5 185.3 L 173.5 199.1 L 187.2 199.1" id="66,63" /><path d="M 104.9 314.0 L 104.9 264.8 L 200.9 264.8" id="65,62" /><path d="M 104.9 314.0 L 104.9 315.3 L 200.9 315.3" id="65,61" /><path d="M 104.9 314.0 L 104.9 361.7 L 118.6 361.7" id="65,60" /><path d="M 187.2 199.1 L 187.2 214.4 L 200.9 214.4" id="63,59" /><path d="M 200.9 264.8 L 200.9 287.8 L 214.7 287.8" id="62,58" /><path d="M 200.9 315.3 L 200.9 324.5 L 214.7 324.5" id="61,57" /><path d="M 118.6 361.7 L 118.6 380.7 L 132.3 380.7" id="60,56" /><path d="M 200.9 214.4 L 200.9 202.1 L 214.7 202.1" id="59,55" /><path d="M 200.9 214.4 L 200.9 226.6 L 214.7 226.6" id="59,54" /><path d="M 132.3 380.7 L 132.3 406.3 L 146.1 406.3" id="56,53" /><path d="M 146.1 406.3 L 146.1 445.3 L 159.8 445.3" id="53,52" /><path d="M 159.8 445.3 L 159.8 407.0 L 187.2 407.0" id="52,51" /><path d="M 159.8 445.3 L 159.8 483.5 L 173.5 483.5" id="52,50" /><path d="M 187.2 407.0 L 187.2 388.7 L 200.9 388.7" id="51,49" /><path d="M 187.2 407.0 L 187.2 425.4 L 200.9 425.4" id="51,48" /><path d="M 173.5 483.5 L 173.5 462.1 L 200.9 462.1" id="50,47" /><path d="M 173.5 483.5 L 173.5 504.9 L 187.2 504.9" id="50,46" /><path d="M 200.9 388.7 L 200.9 397.9 L 214.7 397.9" id="49,45" /><path d="M 200.9 425.4 L 200.9 434.6 L 214.7 434.6" id="48,44" /><path d="M 200.9 462.1 L 200.9 471.3 L 214.7 471.3" id="47,43" /><path d="M 187.2 504.9 L 187.2 520.2 L 200.9 520.2" id="46,42" /><path d="M 200.9 520.2 L 200.9 508.0 L 214.7 508.0" id="42,41" /><path d="M 200.9 520.2 L 200.9 532.4 L 214.7 532.4" id="42,40" /><path d="M 50.0 105.7 L 50.0 61.5 L 228.4 61.5" id="74,39" /><path d="M 214.7 79.8 L 214.7 73.7 L 228.4 73.7" id="70,38" /><path d="M 214.7 79.8 L 214.7 85.9 L 228.4 85.9" id="70,37" /><path d="M 187.2 111.4 L 187.2 98.2 L 228.4 98.2" id="69,36" /><path d="M 200.9 124.7 L 200.9 110.4 L 228.4 110.4" id="67,35" /><path d="M 200.9 124.7 L 200.9 122.6 L 228.4 122.6" id="67,34" /><path d="M 214.7 141.0 L 214.7 134.9 L 228.4 134.9" id="64,33" /><path d="M 214.7 141.0 L 214.7 147.1 L 228.4 147.1" id="64,32" /><path d="M 77.4 204.5 L 77.4 159.3 L 228.4 159.3" id="71,31" /><path d="M 173.5 185.3 L 173.5 171.6 L 228.4 171.6" id="66,30" /><path d="M 187.2 199.1 L 187.2 183.8 L 228.4 183.8" id="63,29" /><path d="M 214.7 202.1 L 214.7 196.0 L 228.4 196.0" id="55,28" /><path d="M 214.7 202.1 L 214.7 208.3 L 228.4 208.3" id="55,27" /><path d="M 214.7 226.6 L 214.7 220.5 L 228.4 220.5" id="54,26" /><path d="M 214.7 226.6 L 214.7 232.7 L 228.4 232.7" id="54,25" /><path d="M 200.9 264.8 L 200.9 245.0 L 228.4 245.0" id="62,24" /><path d="M 200.9 264.8 L 200.9 257.2 L 228.4 257.2" id="62,23" /><path d="M 200.9 264.8 L 200.9 269.4 L 228.4 269.4" id="62,22" /><path d="M 214.7 287.8 L 214.7 281.7 L 228.4 281.7" id="58,21" /><path d="M 214.7 287.8 L 214.7 293.9 L 228.4 293.9" id="58,20" /><path d="M 200.9 315.3 L 200.9 306.1 L 228.4 306.1" id="61,19" /><path d="M 214.7 324.5 L 214.7 318.3 L 228.4 318.3" id="57,18" /><path d="M 214.7 324.5 L 214.7 330.6 L 228.4 330.6" id="57,17" /><path d="M 118.6 361.7 L 118.6 342.8 L 228.4 342.8" id="60,16" /><path d="M 132.3 380.7 L 132.3 355.0 L 228.4 355.0" id="56,15" /><path d="M 146.1 406.3 L 146.1 367.3 L 228.4 367.3" id="53,14" /><path d="M 200.9 388.7 L 200.9 379.5 L 228.4 379.5" id="49,13" /><path d="M 214.7 397.9 L 214.7 391.7 L 228.4 391.7" id="45,12" /><path d="M 214.7 397.9 L 214.7 404.0 L 228.4 404.0" id="45,11" /><path d="M 200.9 425.4 L 200.9 416.2 L 228.4 416.2" id="48,10" /><path d="M 214.7 434.6 L 214.7 428.4 L 228.4 428.4" id="44,9" /><path d="M 214.7 434.6 L 214.7 440.7 L 228.4 440.7" id="44,8" /><path d="M 200.9 462.1 L 200.9 452.9 L 228.4 452.9" id="47,7" /><path d="M 214.7 471.3 L 214.7 465.1 L 228.4 465.1" id="43,6" /><path d="M 214.7 471.3 L 214.7 477.4 L 228.4 477.4" id="43,5" /><path d="M 187.2 504.9 L 187.2 489.6 L 228.4 489.6" id="46,4" /><path d="M 214.7 508.0 L 214.7 501.8 L 228.4 501.8" id="41,3" /><path d="M 214.7 508.0 L 214.7 514.1 L 228.4 514.1" id="41,2" /><path d="M 214.7 532.4 L 214.7 526.3 L 228.4 526.3" id="40,1" /><path d="M 214.7 532.4 L 214.7 538.5 L 228.4 538.5" id="40,0" /></g><g class="toytree-Nodes" style="fill:rgb(40%,76.1%,64.7%);fill-opacity:1.0;stroke:rgb(0%,0%,0%);stroke-opacity:1.0;stroke-width:1"><g fill="rgb(100%,100%,100%)" fill-opacity="1.0" id="node-0" transform="translate(228.387,538.550)"><circle r="0.0" /></g><g fill="rgb(100%,100%,100%)" fill-opacity="1.0" id="node-1" transform="translate(228.387,526.316)"><circle r="0.0" /></g><g fill="rgb(100%,100%,100%)" fill-opacity="1.0" id="node-2" transform="translate(228.387,514.083)"><circle r="0.0" /></g><g fill="rgb(100%,100%,100%)" fill-opacity="1.0" id="node-3" transform="translate(228.387,501.850)"><circle r="0.0" /></g><g fill="rgb(100%,100%,100%)" fill-opacity="1.0" id="node-4" transform="translate(228.387,489.616)"><circle r="0.0" /></g><g fill="rgb(100%,100%,100%)" fill-opacity="1.0" id="node-5" transform="translate(228.387,477.383)"><circle r="0.0" /></g><g fill="rgb(100%,100%,100%)" fill-opacity="1.0" id="node-6" transform="translate(228.387,465.150)"><circle r="0.0" /></g><g fill="rgb(100%,100%,100%)" fill-opacity="1.0" id="node-7" transform="translate(228.387,452.916)"><circle r="0.0" /></g><g fill="rgb(100%,100%,100%)" fill-opacity="1.0" id="node-8" transform="translate(228.387,440.683)"><circle r="0.0" /></g><g fill="rgb(100%,100%,100%)" fill-opacity="1.0" id="node-9" transform="translate(228.387,428.450)"><circle r="0.0" /></g><g fill="rgb(100%,100%,100%)" fill-opacity="1.0" id="node-10" transform="translate(228.387,416.216)"><circle r="0.0" /></g><g fill="rgb(100%,100%,100%)" fill-opacity="1.0" id="node-11" transform="translate(228.387,403.983)"><circle r="0.0" /></g><g fill="rgb(100%,100%,100%)" fill-opacity="1.0" id="node-12" transform="translate(228.387,391.750)"><circle r="0.0" /></g><g fill="rgb(100%,100%,100%)" fill-opacity="1.0" id="node-13" transform="translate(228.387,379.517)"><circle r="0.0" /></g><g fill="rgb(100%,100%,100%)" fill-opacity="1.0" id="node-14" transform="translate(228.387,367.283)"><circle r="0.0" /></g><g fill="rgb(100%,100%,100%)" fill-opacity="1.0" id="node-15" transform="translate(228.387,355.050)"><circle r="0.0" /></g><g fill="rgb(100%,100%,100%)" fill-opacity="1.0" id="node-16" transform="translate(228.387,342.817)"><circle r="0.0" /></g><g fill="rgb(100%,100%,100%)" fill-opacity="1.0" id="node-17" transform="translate(228.387,330.583)"><circle r="0.0" /></g><g fill="rgb(100%,100%,100%)" fill-opacity="1.0" id="node-18" transform="translate(228.387,318.350)"><circle r="0.0" /></g><g fill="rgb(100%,100%,100%)" fill-opacity="1.0" id="node-19" transform="translate(228.387,306.117)"><circle r="0.0" /></g><g fill="rgb(100%,100%,100%)" fill-opacity="1.0" id="node-20" transform="translate(228.387,293.883)"><circle r="0.0" /></g><g fill="rgb(100%,100%,100%)" fill-opacity="1.0" id="node-21" transform="translate(228.387,281.650)"><circle r="0.0" /></g><g fill="rgb(100%,100%,100%)" fill-opacity="1.0" id="node-22" transform="translate(228.387,269.417)"><circle r="0.0" /></g><g fill="rgb(100%,100%,100%)" fill-opacity="1.0" id="node-23" transform="translate(228.387,257.183)"><circle r="0.0" /></g><g fill="rgb(100%,100%,100%)" fill-opacity="1.0" id="node-24" transform="translate(228.387,244.950)"><circle r="0.0" /></g><g fill="rgb(100%,100%,100%)" fill-opacity="1.0" id="node-25" transform="translate(228.387,232.717)"><circle r="0.0" /></g><g fill="rgb(100%,100%,100%)" fill-opacity="1.0" id="node-26" transform="translate(228.387,220.483)"><circle r="0.0" /></g><g fill="rgb(100%,100%,100%)" fill-opacity="1.0" id="node-27" transform="translate(228.387,208.250)"><circle r="0.0" /></g><g fill="rgb(100%,100%,100%)" fill-opacity="1.0" id="node-28" transform="translate(228.387,196.017)"><circle r="0.0" /></g><g fill="rgb(100%,100%,100%)" fill-opacity="1.0" id="node-29" transform="translate(228.387,183.784)"><circle r="0.0" /></g><g fill="rgb(100%,100%,100%)" fill-opacity="1.0" id="node-30" transform="translate(228.387,171.550)"><circle r="0.0" /></g><g fill="rgb(100%,100%,100%)" fill-opacity="1.0" id="node-31" transform="translate(228.387,159.317)"><circle r="0.0" /></g><g fill="rgb(100%,100%,100%)" fill-opacity="1.0" id="node-32" transform="translate(228.387,147.084)"><circle r="0.0" /></g><g fill="rgb(100%,100%,100%)" fill-opacity="1.0" id="node-33" transform="translate(228.387,134.850)"><circle r="0.0" /></g><g fill="rgb(100%,100%,100%)" fill-opacity="1.0" id="node-34" transform="translate(228.387,122.617)"><circle r="0.0" /></g><g fill="rgb(100%,100%,100%)" fill-opacity="1.0" id="node-35" transform="translate(228.387,110.384)"><circle r="0.0" /></g><g fill="rgb(100%,100%,100%)" fill-opacity="1.0" id="node-36" transform="translate(228.387,98.150)"><circle r="0.0" /></g><g fill="rgb(100%,100%,100%)" fill-opacity="1.0" id="node-37" transform="translate(228.387,85.917)"><circle r="0.0" /></g><g fill="rgb(100%,100%,100%)" fill-opacity="1.0" id="node-38" transform="translate(228.387,73.684)"><circle r="0.0" /></g><g fill="rgb(100%,100%,100%)" fill-opacity="1.0" id="node-39" transform="translate(228.387,61.450)"><circle r="0.0" /></g><g fill="rgb(0%,0%,0%)" fill-opacity="1.0" id="node-40" transform="translate(214.665,532.433)"><circle r="3.0" /></g><g fill="rgb(0%,0%,0%)" fill-opacity="1.0" id="node-41" transform="translate(214.665,507.966)"><circle r="3.0" /></g><g fill="rgb(0%,0%,0%)" fill-opacity="1.0" id="node-42" transform="translate(200.943,520.200)"><circle r="3.0" /></g><g fill="rgb(0%,0%,0%)" fill-opacity="1.0" id="node-43" transform="translate(214.665,471.266)"><circle r="3.0" /></g><g fill="rgb(0%,0%,0%)" fill-opacity="1.0" id="node-44" transform="translate(214.665,434.566)"><circle r="3.0" /></g><g fill="rgb(0%,0%,0%)" fill-opacity="1.0" id="node-45" transform="translate(214.665,397.867)"><circle r="3.0" /></g><g fill="rgb(0%,0%,0%)" fill-opacity="1.0" id="node-46" transform="translate(187.221,504.908)"><circle r="3.0" /></g><g fill="rgb(0%,0%,0%)" fill-opacity="1.0" id="node-47" transform="translate(200.943,462.091)"><circle r="3.0" /></g><g fill="rgb(0%,0%,0%)" fill-opacity="1.0" id="node-48" transform="translate(200.943,425.391)"><circle r="3.0" /></g><g fill="rgb(100%,100%,100%)" fill-opacity="1.0" id="node-49" transform="translate(200.943,388.692)"><circle r="3.0" /></g><g fill="rgb(0%,0%,0%)" fill-opacity="1.0" id="node-50" transform="translate(173.499,483.500)"><circle r="3.0" /></g><g fill="rgb(0%,0%,0%)" fill-opacity="1.0" id="node-51" transform="translate(187.221,407.041)"><circle r="3.0" /></g><g fill="rgb(0%,0%,0%)" fill-opacity="1.0" id="node-52" transform="translate(159.777,445.271)"><circle r="3.0" /></g><g fill="rgb(0%,0%,0%)" fill-opacity="1.0" id="node-53" transform="translate(146.055,406.277)"><circle r="3.0" /></g><g fill="rgb(0%,0%,0%)" fill-opacity="1.0" id="node-54" transform="translate(214.665,226.600)"><circle r="3.0" /></g><g fill="rgb(0%,0%,0%)" fill-opacity="1.0" id="node-55" transform="translate(214.665,202.133)"><circle r="3.0" /></g><g fill="rgb(0%,0%,0%)" fill-opacity="1.0" id="node-56" transform="translate(132.333,380.663)"><circle r="3.0" /></g><g fill="rgb(0%,0%,0%)" fill-opacity="1.0" id="node-57" transform="translate(214.665,324.467)"><circle r="3.0" /></g><g fill="rgb(0%,0%,0%)" fill-opacity="1.0" id="node-58" transform="translate(214.665,287.767)"><circle r="3.0" /></g><g fill="rgb(0%,0%,0%)" fill-opacity="1.0" id="node-59" transform="translate(200.943,214.367)"><circle r="3.0" /></g><g fill="rgb(0%,0%,0%)" fill-opacity="1.0" id="node-60" transform="translate(118.611,361.740)"><circle r="3.0" /></g><g fill="rgb(0%,0%,0%)" fill-opacity="1.0" id="node-61" transform="translate(200.943,315.292)"><circle r="3.0" /></g><g fill="rgb(100%,100%,100%)" fill-opacity="1.0" id="node-62" transform="translate(200.943,264.829)"><circle r="3.0" /></g><g fill="rgb(0%,0%,0%)" fill-opacity="1.0" id="node-63" transform="translate(187.221,199.075)"><circle r="3.0" /></g><g fill="rgb(0%,0%,0%)" fill-opacity="1.0" id="node-64" transform="translate(214.665,140.967)"><circle r="3.0" /></g><g fill="rgb(0%,0%,0%)" fill-opacity="1.0" id="node-65" transform="translate(104.888,313.954)"><circle r="3.0" /></g><g fill="rgb(0%,0%,0%)" fill-opacity="1.0" id="node-66" transform="translate(173.499,185.313)"><circle r="3.0" /></g><g fill="rgb(0%,0%,0%)" fill-opacity="1.0" id="node-67" transform="translate(200.943,124.656)"><circle r="3.0" /></g><g fill="rgb(0%,0%,0%)" fill-opacity="1.0" id="node-68" transform="translate(91.166,249.633)"><circle r="3.0" /></g><g fill="rgb(0%,0%,0%)" fill-opacity="1.0" id="node-69" transform="translate(187.221,111.403)"><circle r="3.0" /></g><g fill="rgb(0%,0%,0%)" fill-opacity="1.0" id="node-70" transform="translate(214.665,79.800)"><circle r="3.0" /></g><g fill="rgb(0%,0%,0%)" fill-opacity="1.0" id="node-71" transform="translate(77.444,204.475)"><circle r="3.0" /></g><g fill="rgb(0%,0%,0%)" fill-opacity="1.0" id="node-72" transform="translate(173.499,95.602)"><circle r="3.0" /></g><g fill="rgb(0%,0%,0%)" fill-opacity="1.0" id="node-73" transform="translate(63.722,150.038)"><circle r="3.0" /></g><g fill="rgb(0%,0%,0%)" fill-opacity="1.0" id="node-74" transform="translate(50.000,105.744)"><circle r="0.0" /></g></g><g class="toytree-NodeLabels" style="fill:rgb(0%,0%,0%);fill-opacity:1.0;font-size:7;stroke:none;text-shadow:0.5px 0.5px #fff, -0.5px 0.5px #fff, 0.5px -0.5px #fff, -0.5px -0.5px #fff"><g transform="translate(207.05,390.48)"><text>84</text></g><g transform="translate(207.05,266.62)"><text>82</text></g></g><g class="toytree-TipLabels" style="fill:rgb(14.9%,14.9%,14.9%);fill-opacity:1.0;font-family:helvetica;font-size:10px;font-weight:normal;stroke:none;white-space:pre"><g transform="translate(228.39,538.55)rotate(0)"><text style="fill:rgb(0%,0%,0%);fill-opacity:1.0" x="15.00" y="2.55">V. dumatorum</text></g><g transform="translate(228.39,526.32)rotate(0)"><text style="fill:rgb(67.8%,81.6%,61.6%);fill-opacity:1.0" x="15.00" y="2.55">V. seemenii</text></g><g transform="translate(228.39,514.08)rotate(0)"><text style="fill:rgb(67.8%,81.6%,61.6%);fill-opacity:1.0" x="15.00" y="2.55">V. triphyllum_new</text></g><g transform="translate(228.39,501.85)rotate(0)"><text style="fill:rgb(100%,75.3%,0%);fill-opacity:1.0" x="15.00" y="2.55">V. reticulatum</text></g><g transform="translate(228.39,489.62)rotate(0)"><text style="fill:rgb(58%,58%,58%);fill-opacity:1.0" x="15.00" y="2.55">V. toronis</text></g><g transform="translate(228.39,477.38)rotate(0)"><text style="fill:rgb(92.9%,49%,19.2%);fill-opacity:1.0" x="15.00" y="2.55">V. jamesonii</text></g><g transform="translate(228.39,465.15)rotate(0)"><text style="fill:rgb(58%,58%,58%);fill-opacity:1.0" x="15.00" y="2.55">V. hallii</text></g><g transform="translate(228.39,452.92)rotate(0)"><text style="fill:rgb(92.9%,49%,19.2%);fill-opacity:1.0" x="15.00" y="2.55">V. pichinchense</text></g><g transform="translate(228.39,440.68)rotate(0)"><text style="fill:rgb(67.8%,81.6%,61.6%);fill-opacity:1.0" x="15.00" y="2.55">V. subsessile</text></g><g transform="translate(228.39,428.45)rotate(0)"><text style="fill:rgb(100%,75.3%,0%);fill-opacity:1.0" x="15.00" y="2.55">V. undulatum</text></g><g transform="translate(228.39,416.22)rotate(0)"><text style="fill:rgb(58%,58%,58%);fill-opacity:1.0" x="15.00" y="2.55">V. tinoides_1</text></g><g transform="translate(228.39,403.98)rotate(0)"><text style="fill:rgb(67.8%,81.6%,61.6%);fill-opacity:1.0" x="15.00" y="2.55">V. triphyllum</text></g><g transform="translate(228.39,391.75)rotate(0)"><text style="fill:rgb(92.9%,49%,19.2%);fill-opacity:1.0" x="15.00" y="2.55">V. lasiophyllum</text></g><g transform="translate(228.39,379.52)rotate(0)"><text style="fill:rgb(58%,58%,58%);fill-opacity:1.0" x="15.00" y="2.55">V. tinoides_2</text></g><g transform="translate(228.39,367.28)rotate(0)"><text style="fill:rgb(58%,58%,58%);fill-opacity:1.0" x="15.00" y="2.55">V. costaricanum</text></g><g transform="translate(228.39,355.05)rotate(0)"><text style="fill:rgb(58%,58%,58%);fill-opacity:1.0" x="15.00" y="2.55">V. hartwegii</text></g><g transform="translate(228.39,342.82)rotate(0)"><text style="fill:rgb(58%,58%,58%);fill-opacity:1.0" x="15.00" y="2.55">V. obtusatum</text></g><g transform="translate(228.39,330.58)rotate(0)"><text style="fill:rgb(92.9%,49%,19.2%);fill-opacity:1.0" x="15.00" y="2.55">V. villosum</text></g><g transform="translate(228.39,318.35)rotate(0)"><text style="fill:rgb(58%,58%,58%);fill-opacity:1.0" x="15.00" y="2.55">V. alpinum</text></g><g transform="translate(228.39,306.12)rotate(0)"><text style="fill:rgb(92.9%,49%,19.2%);fill-opacity:1.0" x="15.00" y="2.55">V. stellato-tomentosum</text></g><g transform="translate(228.39,293.88)rotate(0)"><text style="fill:rgb(67.8%,81.6%,61.6%);fill-opacity:1.0" x="15.00" y="2.55">V. lautum</text></g><g transform="translate(228.39,281.65)rotate(0)"><text style="fill:rgb(92.9%,49%,19.2%);fill-opacity:1.0" x="15.00" y="2.55">V. jucundum</text></g><g transform="translate(228.39,269.42)rotate(0)"><text style="fill:rgb(67.8%,81.6%,61.6%);fill-opacity:1.0" x="15.00" y="2.55">V. blandum</text></g><g transform="translate(228.39,257.18)rotate(0)"><text style="fill:rgb(92.9%,49%,19.2%);fill-opacity:1.0" x="15.00" y="2.55">V. disjunctum</text></g><g transform="translate(228.39,244.95)rotate(0)"><text style="fill:rgb(100%,75.3%,0%);fill-opacity:1.0" x="15.00" y="2.55">V. discolor</text></g><g transform="translate(228.39,232.72)rotate(0)"><text style="fill:rgb(0%,0%,0%);fill-opacity:1.0" x="15.00" y="2.55">V. new sp. 2</text></g><g transform="translate(228.39,220.48)rotate(0)"><text style="fill:rgb(55.7%,63.9%,84.7%);fill-opacity:1.0" x="15.00" y="2.55">V. membranaceum</text></g><g transform="translate(228.39,208.25)rotate(0)"><text style="fill:rgb(0%,0%,0%);fill-opacity:1.0" x="15.00" y="2.55">V. new sp. 1</text></g><g transform="translate(228.39,196.02)rotate(0)"><text style="fill:rgb(67.8%,81.6%,61.6%);fill-opacity:1.0" x="15.00" y="2.55">V. acutifolium</text></g><g transform="translate(228.39,183.78)rotate(0)"><text style="fill:rgb(67.8%,81.6%,61.6%);fill-opacity:1.0" x="15.00" y="2.55">V. microphyllum</text></g><g transform="translate(228.39,171.55)rotate(0)"><text style="fill:rgb(58%,58%,58%);fill-opacity:1.0" x="15.00" y="2.55">V. fuscum</text></g><g transform="translate(228.39,159.32)rotate(0)"><text style="fill:rgb(100%,75.3%,0%);fill-opacity:1.0" x="15.00" y="2.55">V. sulcatum</text></g><g transform="translate(228.39,147.08)rotate(0)"><text style="fill:rgb(55.7%,63.9%,84.7%);fill-opacity:1.0" x="15.00" y="2.55">V. ciliatum</text></g><g transform="translate(228.39,134.85)rotate(0)"><text style="fill:rgb(0%,0%,0%);fill-opacity:1.0" x="15.00" y="2.55">V. hirsutum</text></g><g transform="translate(228.39,122.62)rotate(0)"><text style="fill:rgb(67.8%,81.6%,61.6%);fill-opacity:1.0" x="15.00" y="2.55">V. caudatum</text></g><g transform="translate(228.39,110.38)rotate(0)"><text style="fill:rgb(100%,75.3%,0%);fill-opacity:1.0" x="15.00" y="2.55">V. microcarpum</text></g><g transform="translate(228.39,98.15)rotate(0)"><text style="fill:rgb(92.9%,49%,19.2%);fill-opacity:1.0" x="15.00" y="2.55">V. tiliaefolium</text></g><g transform="translate(228.39,85.92)rotate(0)"><text style="fill:rgb(55.7%,63.9%,84.7%);fill-opacity:1.0" x="15.00" y="2.55">V. loeseneri</text></g><g transform="translate(228.39,73.68)rotate(0)"><text style="fill:rgb(55.7%,63.9%,84.7%);fill-opacity:1.0" x="15.00" y="2.55">V. stenocalyx</text></g><g transform="translate(228.39,61.45)rotate(0)"><text style="fill:rgb(55.7%,63.9%,84.7%);fill-opacity:1.0" x="15.00" y="2.55">V. dentatum</text></g></g></g></g></g></svg>