<svg class="toyplot-canvas-Canvas" height="1800.0px" id="tec57df4653b84bde8c8b4a224633ab46" preserveAspectRatio="xMidYMid meet" style="background-color:transparent;border-color:#292724;border-style:none;border-width:1.0;fill:rgb(16.1%,15.3%,14.1%);fill-opacity:1.0;font-family:Helvetica;font-size:12px;opacity:1.0;stroke:rgb(16.1%,15.3%,14.1%);stroke-opacity:1.0;stroke-width:1.0" viewBox="0 0 600.0 1800.0" width="600.0px" xmlns="http://www.w3.org/2000/svg" xmlns:toyplot="http://www.sandia.gov/toyplot" xmlns:xlink="http://www.w3.org/1999/xlink"><g class="toyplot-coordinates-Cartesian" id="t2be3ebf09db44ea8b727462b89ab8f81"><clipPath id="t423e0a14aba64d7f86069ac342513de7"><rect height="1740.0" width="540.0" x="30.0" y="30.0" /></clipPath><g clip-path="url(#t423e0a14aba64d7f86069ac342513de7)"><g class="toytree-mark-Toytree" id="t5aa6ac52cb9545f3ab4ddf49ffbe82fd"><g class="toytree-Edges" style="fill:none;stroke:rgb(14.9%,14.9%,14.9%);stroke-linecap:round;stroke-opacity:1;stroke-width:2"><path d="M 50.0 229.3 L 50.0 78.8 L 117.1 78.8" id="284,283" /><path d="M 50.0 229.3 L 50.0 379.7 L 117.1 379.7" id="284,282" /><path d="M 117.1 78.8 L 117.1 67.7 L 139.1 67.7" id="283,281" /><path d="M 117.1 78.8 L 117.1 89.9 L 176.4 89.9" id="283,280" /><path d="M 117.1 379.7 L 117.1 171.4 L 152.1 171.4" id="282,279" /><path d="M 117.1 379.7 L 117.1 588.1 L 144.6 588.1" id="282,278" /><path d="M 176.4 89.9 L 176.4 98.1 L 198.3 98.1" id="280,277" /><path d="M 152.1 171.4 L 152.1 123.8 L 175.8 123.8" id="279,276" /><path d="M 152.1 171.4 L 152.1 218.9 L 172.0 218.9" id="279,275" /><path d="M 144.6 588.1 L 144.6 413.7 L 215.5 413.7" id="278,274" /><path d="M 144.6 588.1 L 144.6 762.5 L 164.1 762.5" id="278,273" /><path d="M 198.3 98.1 L 198.3 105.1 L 223.8 105.1" id="277,272" /><path d="M 172.0 218.9 L 172.0 163.5 L 206.3 163.5" id="275,271" /><path d="M 172.0 218.9 L 172.0 274.4 L 188.8 274.4" id="275,270" /><path d="M 164.1 762.5 L 164.1 490.2 L 178.8 490.2" id="273,269" /><path d="M 164.1 762.5 L 164.1 1034.9 L 184.9 1034.9" id="273,268" /><path d="M 206.3 163.5 L 206.3 144.8 L 232.8 144.8" id="271,267" /><path d="M 206.3 163.5 L 206.3 179.9 L 226.7 179.9" id="271,266" /><path d="M 188.8 274.4 L 188.8 226.7 L 205.6 226.7" id="270,265" /><path d="M 188.8 274.4 L 188.8 322.0 L 203.7 322.0" id="270,264" /><path d="M 178.8 490.2 L 178.8 451.1 L 240.5 451.1" id="269,263" /><path d="M 178.8 490.2 L 178.8 529.4 L 193.7 529.4" id="269,262" /><path d="M 184.9 1034.9 L 184.9 696.6 L 214.7 696.6" id="268,261" /><path d="M 184.9 1034.9 L 184.9 731.7 L 222.1 731.7" id="268,260" /><path d="M 184.9 1034.9 L 184.9 750.4 L 214.7 750.4" id="268,259" /><path d="M 184.9 1034.9 L 184.9 771.4 L 230.0 771.4" id="268,258" /><path d="M 184.9 1034.9 L 184.9 900.3 L 200.5 900.3" id="268,257" /><path d="M 184.9 1034.9 L 184.9 1512.6 L 206.0 1512.6" id="268,256" /><path d="M 184.9 1034.9 L 184.9 1592.0 L 218.4 1592.0" id="268,255" /><path d="M 184.9 1034.9 L 184.9 1641.1 L 195.5 1641.1" id="268,254" /><path d="M 232.8 144.8 L 232.8 151.8 L 253.6 151.8" id="267,253" /><path d="M 205.6 226.7 L 205.6 208.0 L 233.4 208.0" id="265,252" /><path d="M 205.6 226.7 L 205.6 245.4 L 223.8 245.4" id="265,251" /><path d="M 203.7 322.0 L 203.7 295.9 L 260.5 295.9" id="264,250" /><path d="M 203.7 322.0 L 203.7 348.2 L 226.8 348.2" id="264,249" /><path d="M 193.7 529.4 L 193.7 481.5 L 252.6 481.5" id="262,248" /><path d="M 193.7 529.4 L 193.7 577.2 L 209.9 577.2" id="262,247" /><path d="M 214.7 696.6 L 214.7 703.6 L 278.0 703.6" id="261,246" /><path d="M 230.0 771.4 L 230.0 778.4 L 264.7 778.4" id="258,245" /><path d="M 200.5 900.3 L 200.5 812.2 L 260.0 812.2" id="257,244" /><path d="M 200.5 900.3 L 200.5 988.5 L 246.6 988.5" id="257,243" /><path d="M 206.0 1512.6 L 206.0 1479.8 L 226.1 1479.8" id="256,242" /><path d="M 206.0 1512.6 L 206.0 1545.3 L 224.9 1545.3" id="256,241" /><path d="M 195.5 1641.1 L 195.5 1676.2 L 213.7 1676.2" id="254,240" /><path d="M 223.8 245.4 L 223.8 236.0 L 256.0 236.0" id="251,239" /><path d="M 223.8 245.4 L 223.8 254.7 L 246.8 254.7" id="251,238" /><path d="M 260.5 295.9 L 260.5 273.4 L 289.6 273.4" id="250,237" /><path d="M 226.8 348.2 L 226.8 329.5 L 250.2 329.5" id="249,236" /><path d="M 226.8 348.2 L 226.8 366.9 L 247.4 366.9" id="249,235" /><path d="M 252.6 481.5 L 252.6 488.5 L 270.6 488.5" id="248,234" /><path d="M 209.9 577.2 L 209.9 531.8 L 224.6 531.8" id="247,233" /><path d="M 209.9 577.2 L 209.9 622.7 L 224.7 622.7" id="247,232" /><path d="M 260.0 812.2 L 260.0 797.1 L 275.7 797.1" id="244,231" /><path d="M 260.0 812.2 L 260.0 827.2 L 274.2 827.2" id="244,230" /><path d="M 246.6 988.5 L 246.6 1100.3 L 285.9 1100.3" id="243,229" /><path d="M 247.4 366.9 L 247.4 366.9 L 267.7 366.9" id="235,228" /><path d="M 224.6 531.8 L 224.6 511.9 L 254.6 511.9" id="233,227" /><path d="M 224.6 531.8 L 224.6 551.6 L 243.0 551.6" id="233,226" /><path d="M 224.7 622.7 L 224.7 600.7 L 278.8 600.7" id="232,225" /><path d="M 224.7 622.7 L 224.7 644.6 L 241.7 644.6" id="232,224" /><path d="M 274.2 827.2 L 274.2 815.8 L 298.2 815.8" id="230,223" /><path d="M 274.2 827.2 L 274.2 838.6 L 285.2 838.6" id="230,222" /><path d="M 285.9 1100.3 L 285.9 988.7 L 299.7 988.7" id="229,221" /><path d="M 285.9 1100.3 L 285.9 1211.9 L 296.7 1211.9" id="229,220" /><path d="M 243.0 551.6 L 243.0 535.3 L 273.7 535.3" id="226,219" /><path d="M 243.0 551.6 L 243.0 568.0 L 258.3 568.0" id="226,218" /><path d="M 241.7 644.6 L 241.7 628.8 L 265.5 628.8" id="224,217" /><path d="M 241.7 644.6 L 241.7 660.4 L 269.4 660.4" id="224,216" /><path d="M 285.2 838.6 L 285.2 847.4 L 301.0 847.4" id="222,215" /><path d="M 299.7 988.7 L 299.7 903.1 L 316.4 903.1" id="221,214" /><path d="M 299.7 988.7 L 299.7 928.1 L 313.4 928.1" id="221,213" /><path d="M 299.7 988.7 L 299.7 946.8 L 311.1 946.8" id="221,212" /><path d="M 299.7 988.7 L 299.7 984.2 L 316.7 984.2" id="221,211" /><path d="M 299.7 988.7 L 299.7 1012.2 L 311.4 1012.2" id="221,210" /><path d="M 296.7 1211.9 L 296.7 1139.1 L 307.9 1139.1" id="220,209" /><path d="M 296.7 1211.9 L 296.7 1284.8 L 310.0 1284.8" id="220,208" /><path d="M 265.5 628.8 L 265.5 619.4 L 280.3 619.4" id="217,207" /><path d="M 265.5 628.8 L 265.5 638.1 L 282.1 638.1" id="217,206" /><path d="M 269.4 660.4 L 269.4 668.5 L 284.5 668.5" id="216,205" /><path d="M 301.0 847.4 L 301.0 855.6 L 317.0 855.6" id="215,204" /><path d="M 316.4 903.1 L 316.4 890.6 L 332.4 890.6" id="214,203" /><path d="M 307.9 1139.1 L 307.9 1077.7 L 321.8 1077.7" id="209,202" /><path d="M 307.9 1139.1 L 307.9 1098.7 L 321.0 1098.7" id="209,201" /><path d="M 307.9 1139.1 L 307.9 1124.4 L 320.3 1124.4" id="209,200" /><path d="M 310.0 1284.8 L 310.0 1222.6 L 322.4 1222.6" id="208,199" /><path d="M 310.0 1284.8 L 310.0 1346.9 L 325.6 1346.9" id="208,198" /><path d="M 284.5 668.5 L 284.5 675.6 L 308.4 675.6" id="205,197" /><path d="M 317.0 855.6 L 317.0 862.6 L 329.9 862.6" id="204,196" /><path d="M 321.0 1098.7 L 321.0 1105.7 L 335.7 1105.7" id="201,195" /><path d="M 322.4 1222.6 L 322.4 1208.6 L 338.2 1208.6" id="199,194" /><path d="M 322.4 1222.6 L 322.4 1236.7 L 335.9 1236.7" id="199,193" /><path d="M 325.6 1346.9 L 325.6 1267.1 L 337.6 1267.1" id="198,192" /><path d="M 325.6 1346.9 L 325.6 1317.7 L 343.2 1317.7" id="198,191" /><path d="M 325.6 1346.9 L 325.6 1388.6 L 336.4 1388.6" id="198,190" /><path d="M 325.6 1346.9 L 325.6 1424.9 L 337.8 1424.9" id="198,189" /><path d="M 335.9 1236.7 L 335.9 1227.3 L 350.5 1227.3" id="193,188" /><path d="M 335.9 1236.7 L 335.9 1246.0 L 346.8 1246.0" id="193,187" /><path d="M 337.6 1267.1 L 337.6 1274.1 L 347.6 1274.1" id="192,186" /><path d="M 343.2 1317.7 L 343.2 1302.1 L 357.7 1302.1" id="191,185" /><path d="M 343.2 1317.7 L 343.2 1334.9 L 356.2 1334.9" id="191,184" /><path d="M 336.4 1388.6 L 336.4 1395.7 L 344.9 1395.7" id="190,183" /><path d="M 337.8 1424.9 L 337.8 1414.4 L 351.4 1414.4" id="189,182" /><path d="M 337.8 1424.9 L 337.8 1435.4 L 354.1 1435.4" id="189,181" /><path d="M 354.1 1435.4 L 354.1 1442.4 L 366.3 1442.4" id="181,180" /><path d="M 139.1 67.7 L 139.1 63.0 L 251.1 63.0" id="281,179" /><path d="M 139.1 67.7 L 139.1 72.4 L 282.6 72.4" id="281,178" /><path d="M 176.4 89.9 L 176.4 81.7 L 292.2 81.7" id="280,177" /><path d="M 198.3 98.1 L 198.3 91.1 L 279.7 91.1" id="277,176" /><path d="M 223.8 105.1 L 223.8 100.4 L 304.3 100.4" id="272,175" /><path d="M 223.8 105.1 L 223.8 109.8 L 333.7 109.8" id="272,174" /><path d="M 175.8 123.8 L 175.8 119.1 L 310.4 119.1" id="276,173" /><path d="M 175.8 123.8 L 175.8 128.5 L 286.7 128.5" id="276,172" /><path d="M 232.8 144.8 L 232.8 137.8 L 334.4 137.8" id="267,171" /><path d="M 253.6 151.8 L 253.6 147.2 L 316.4 147.2" id="253,170" /><path d="M 253.6 151.8 L 253.6 156.5 L 336.8 156.5" id="253,169" /><path d="M 206.3 163.5 L 206.3 165.9 L 238.3 165.9" id="271,168" /><path d="M 226.7 179.9 L 226.7 175.2 L 309.5 175.2" id="266,167" /><path d="M 226.7 179.9 L 226.7 184.6 L 323.6 184.6" id="266,166" /><path d="M 233.4 208.0 L 233.4 193.9 L 341.0 193.9" id="252,165" /><path d="M 233.4 208.0 L 233.4 203.3 L 312.0 203.3" id="252,164" /><path d="M 233.4 208.0 L 233.4 212.6 L 310.9 212.6" id="252,163" /><path d="M 233.4 208.0 L 233.4 222.0 L 325.5 222.0" id="252,162" /><path d="M 256.0 236.0 L 256.0 231.3 L 336.3 231.3" id="239,161" /><path d="M 256.0 236.0 L 256.0 240.7 L 318.0 240.7" id="239,160" /><path d="M 246.8 254.7 L 246.8 250.0 L 369.1 250.0" id="238,159" /><path d="M 246.8 254.7 L 246.8 259.4 L 320.7 259.4" id="238,158" /><path d="M 289.6 273.4 L 289.6 268.7 L 337.9 268.7" id="237,157" /><path d="M 289.6 273.4 L 289.6 278.1 L 348.4 278.1" id="237,156" /><path d="M 260.5 295.9 L 260.5 287.4 L 305.2 287.4" id="250,155" /><path d="M 260.5 295.9 L 260.5 296.8 L 328.1 296.8" id="250,154" /><path d="M 260.5 295.9 L 260.5 306.1 L 327.6 306.1" id="250,153" /><path d="M 260.5 295.9 L 260.5 315.5 L 347.0 315.5" id="250,152" /><path d="M 250.2 329.5 L 250.2 324.9 L 318.2 324.9" id="236,151" /><path d="M 250.2 329.5 L 250.2 334.2 L 347.3 334.2" id="236,150" /><path d="M 247.4 366.9 L 247.4 343.6 L 337.1 343.6" id="235,149" /><path d="M 247.4 366.9 L 247.4 352.9 L 302.7 352.9" id="235,148" /><path d="M 267.7 366.9 L 267.7 362.3 L 353.2 362.3" id="228,147" /><path d="M 267.7 366.9 L 267.7 371.6 L 342.2 371.6" id="228,146" /><path d="M 247.4 366.9 L 247.4 381.0 L 333.8 381.0" id="235,145" /><path d="M 247.4 366.9 L 247.4 390.3 L 320.4 390.3" id="235,144" /><path d="M 215.5 413.7 L 215.5 399.7 L 286.2 399.7" id="274,143" /><path d="M 215.5 413.7 L 215.5 409.0 L 278.7 409.0" id="274,142" /><path d="M 215.5 413.7 L 215.5 418.4 L 277.9 418.4" id="274,141" /><path d="M 215.5 413.7 L 215.5 427.7 L 246.6 427.7" id="274,140" /><path d="M 240.5 451.1 L 240.5 437.1 L 327.3 437.1" id="263,139" /><path d="M 240.5 451.1 L 240.5 446.4 L 346.6 446.4" id="263,138" /><path d="M 240.5 451.1 L 240.5 455.8 L 300.9 455.8" id="263,137" /><path d="M 240.5 451.1 L 240.5 465.1 L 341.8 465.1" id="263,136" /><path d="M 252.6 481.5 L 252.6 474.5 L 321.9 474.5" id="248,135" /><path d="M 270.6 488.5 L 270.6 483.8 L 328.8 483.8" id="234,134" /><path d="M 270.6 488.5 L 270.6 493.2 L 328.3 493.2" id="234,133" /><path d="M 254.6 511.9 L 254.6 502.5 L 338.7 502.5" id="227,132" /><path d="M 254.6 511.9 L 254.6 511.9 L 292.6 511.9" id="227,131" /><path d="M 254.6 511.9 L 254.6 521.2 L 333.3 521.2" id="227,130" /><path d="M 273.7 535.3 L 273.7 530.6 L 341.0 530.6" id="219,129" /><path d="M 273.7 535.3 L 273.7 539.9 L 361.3 539.9" id="219,128" /><path d="M 258.3 568.0 L 258.3 549.3 L 303.8 549.3" id="218,127" /><path d="M 258.3 568.0 L 258.3 558.7 L 320.9 558.7" id="218,126" /><path d="M 258.3 568.0 L 258.3 568.0 L 328.9 568.0" id="218,125" /><path d="M 258.3 568.0 L 258.3 577.4 L 317.7 577.4" id="218,124" /><path d="M 258.3 568.0 L 258.3 586.7 L 310.9 586.7" id="218,123" /><path d="M 278.8 600.7 L 278.8 596.1 L 343.9 596.1" id="225,122" /><path d="M 278.8 600.7 L 278.8 605.4 L 347.1 605.4" id="225,121" /><path d="M 280.3 619.4 L 280.3 614.8 L 375.3 614.8" id="207,120" /><path d="M 280.3 619.4 L 280.3 624.1 L 329.8 624.1" id="207,119" /><path d="M 282.1 638.1 L 282.1 633.5 L 388.8 633.5" id="206,118" /><path d="M 282.1 638.1 L 282.1 642.8 L 331.1 642.8" id="206,117" /><path d="M 269.4 660.4 L 269.4 652.2 L 322.5 652.2" id="216,116" /><path d="M 284.5 668.5 L 284.5 661.5 L 357.1 661.5" id="205,115" /><path d="M 308.4 675.6 L 308.4 670.9 L 360.6 670.9" id="197,114" /><path d="M 308.4 675.6 L 308.4 680.2 L 380.0 680.2" id="197,113" /><path d="M 214.7 696.6 L 214.7 689.6 L 307.9 689.6" id="261,112" /><path d="M 278.0 703.6 L 278.0 698.9 L 367.6 698.9" id="246,111" /><path d="M 278.0 703.6 L 278.0 708.3 L 333.3 708.3" id="246,110" /><path d="M 184.9 1034.9 L 184.9 717.6 L 329.4 717.6" id="268,109" /><path d="M 222.1 731.7 L 222.1 727.0 L 248.4 727.0" id="260,108" /><path d="M 222.1 731.7 L 222.1 736.3 L 325.1 736.3" id="260,107" /><path d="M 214.7 750.4 L 214.7 745.7 L 333.0 745.7" id="259,106" /><path d="M 214.7 750.4 L 214.7 755.0 L 280.1 755.0" id="259,105" /><path d="M 230.0 771.4 L 230.0 764.4 L 382.4 764.4" id="258,104" /><path d="M 264.7 778.4 L 264.7 773.7 L 339.2 773.7" id="245,103" /><path d="M 264.7 778.4 L 264.7 783.1 L 321.1 783.1" id="245,102" /><path d="M 275.7 797.1 L 275.7 792.5 L 326.8 792.5" id="231,101" /><path d="M 275.7 797.1 L 275.7 801.8 L 318.5 801.8" id="231,100" /><path d="M 298.2 815.8 L 298.2 811.2 L 393.9 811.2" id="223,99" /><path d="M 298.2 815.8 L 298.2 820.5 L 379.9 820.5" id="223,98" /><path d="M 285.2 838.6 L 285.2 829.9 L 327.2 829.9" id="222,97" /><path d="M 301.0 847.4 L 301.0 839.2 L 351.4 839.2" id="215,96" /><path d="M 317.0 855.6 L 317.0 848.6 L 382.9 848.6" id="204,95" /><path d="M 329.9 862.6 L 329.9 857.9 L 408.3 857.9" id="196,94" /><path d="M 329.9 862.6 L 329.9 867.3 L 396.2 867.3" id="196,93" /><path d="M 246.6 988.5 L 246.6 876.6 L 323.6 876.6" id="243,92" /><path d="M 332.4 890.6 L 332.4 886.0 L 398.1 886.0" id="203,91" /><path d="M 332.4 890.6 L 332.4 895.3 L 385.9 895.3" id="203,90" /><path d="M 316.4 903.1 L 316.4 904.7 L 369.9 904.7" id="214,89" /><path d="M 316.4 903.1 L 316.4 914.0 L 362.8 914.0" id="214,88" /><path d="M 313.4 928.1 L 313.4 923.4 L 368.4 923.4" id="213,87" /><path d="M 313.4 928.1 L 313.4 932.7 L 358.0 932.7" id="213,86" /><path d="M 311.1 946.8 L 311.1 942.1 L 348.3 942.1" id="212,85" /><path d="M 311.1 946.8 L 311.1 951.4 L 347.7 951.4" id="212,84" /><path d="M 299.7 988.7 L 299.7 960.8 L 362.1 960.8" id="221,83" /><path d="M 299.7 988.7 L 299.7 970.1 L 359.5 970.1" id="221,82" /><path d="M 316.7 984.2 L 316.7 979.5 L 368.9 979.5" id="211,81" /><path d="M 316.7 984.2 L 316.7 988.8 L 374.9 988.8" id="211,80" /><path d="M 299.7 988.7 L 299.7 998.2 L 340.9 998.2" id="221,79" /><path d="M 311.4 1012.2 L 311.4 1007.5 L 393.2 1007.5" id="210,78" /><path d="M 311.4 1012.2 L 311.4 1016.9 L 361.0 1016.9" id="210,77" /><path d="M 299.7 988.7 L 299.7 1026.3 L 354.2 1026.3" id="221,76" /><path d="M 299.7 988.7 L 299.7 1035.6 L 331.5 1035.6" id="221,75" /><path d="M 299.7 988.7 L 299.7 1045.0 L 358.4 1045.0" id="221,74" /><path d="M 299.7 988.7 L 299.7 1054.3 L 345.2 1054.3" id="221,73" /><path d="M 307.9 1139.1 L 307.9 1063.7 L 382.2 1063.7" id="209,72" /><path d="M 321.8 1077.7 L 321.8 1073.0 L 367.1 1073.0" id="202,71" /><path d="M 321.8 1077.7 L 321.8 1082.4 L 374.4 1082.4" id="202,70" /><path d="M 321.0 1098.7 L 321.0 1091.7 L 383.6 1091.7" id="201,69" /><path d="M 335.7 1105.7 L 335.7 1101.1 L 378.6 1101.1" id="195,68" /><path d="M 335.7 1105.7 L 335.7 1110.4 L 364.0 1110.4" id="195,67" /><path d="M 320.3 1124.4 L 320.3 1119.8 L 363.2 1119.8" id="200,66" /><path d="M 320.3 1124.4 L 320.3 1129.1 L 376.4 1129.1" id="200,65" /><path d="M 307.9 1139.1 L 307.9 1138.5 L 366.9 1138.5" id="209,64" /><path d="M 307.9 1139.1 L 307.9 1147.8 L 352.8 1147.8" id="209,63" /><path d="M 307.9 1139.1 L 307.9 1157.2 L 352.1 1157.2" id="209,62" /><path d="M 307.9 1139.1 L 307.9 1166.5 L 362.6 1166.5" id="209,61" /><path d="M 307.9 1139.1 L 307.9 1175.9 L 344.4 1175.9" id="209,60" /><path d="M 307.9 1139.1 L 307.9 1185.2 L 385.5 1185.2" id="209,59" /><path d="M 307.9 1139.1 L 307.9 1194.6 L 380.5 1194.6" id="209,58" /><path d="M 338.2 1208.6 L 338.2 1203.9 L 397.3 1203.9" id="194,57" /><path d="M 338.2 1208.6 L 338.2 1213.3 L 387.5 1213.3" id="194,56" /><path d="M 350.5 1227.3 L 350.5 1222.6 L 402.2 1222.6" id="188,55" /><path d="M 350.5 1227.3 L 350.5 1232.0 L 395.1 1232.0" id="188,54" /><path d="M 346.8 1246.0 L 346.8 1241.3 L 391.8 1241.3" id="187,53" /><path d="M 346.8 1246.0 L 346.8 1250.7 L 387.8 1250.7" id="187,52" /><path d="M 337.6 1267.1 L 337.6 1260.1 L 394.3 1260.1" id="192,51" /><path d="M 347.6 1274.1 L 347.6 1269.4 L 406.4 1269.4" id="186,50" /><path d="M 347.6 1274.1 L 347.6 1278.8 L 388.7 1278.8" id="186,49" /><path d="M 325.6 1346.9 L 325.6 1288.1 L 389.9 1288.1" id="198,48" /><path d="M 357.7 1302.1 L 357.7 1297.5 L 429.8 1297.5" id="185,47" /><path d="M 357.7 1302.1 L 357.7 1306.8 L 422.4 1306.8" id="185,46" /><path d="M 343.2 1317.7 L 343.2 1316.2 L 413.4 1316.2" id="191,45" /><path d="M 356.2 1334.9 L 356.2 1325.5 L 432.2 1325.5" id="184,44" /><path d="M 356.2 1334.9 L 356.2 1334.9 L 416.7 1334.9" id="184,43" /><path d="M 356.2 1334.9 L 356.2 1344.2 L 417.7 1344.2" id="184,42" /><path d="M 325.6 1346.9 L 325.6 1353.6 L 369.9 1353.6" id="198,41" /><path d="M 325.6 1346.9 L 325.6 1362.9 L 381.3 1362.9" id="198,40" /><path d="M 325.6 1346.9 L 325.6 1372.3 L 358.9 1372.3" id="198,39" /><path d="M 336.4 1388.6 L 336.4 1381.6 L 366.7 1381.6" id="190,38" /><path d="M 344.9 1395.7 L 344.9 1391.0 L 378.4 1391.0" id="183,37" /><path d="M 344.9 1395.7 L 344.9 1400.3 L 396.6 1400.3" id="183,36" /><path d="M 351.4 1414.4 L 351.4 1409.7 L 385.9 1409.7" id="182,35" /><path d="M 351.4 1414.4 L 351.4 1419.0 L 390.2 1419.0" id="182,34" /><path d="M 354.1 1435.4 L 354.1 1428.4 L 417.6 1428.4" id="181,33" /><path d="M 366.3 1442.4 L 366.3 1437.7 L 424.5 1437.7" id="180,32" /><path d="M 366.3 1442.4 L 366.3 1447.1 L 429.1 1447.1" id="180,31" /><path d="M 226.1 1479.8 L 226.1 1456.4 L 292.0 1456.4" id="242,30" /><path d="M 226.1 1479.8 L 226.1 1465.8 L 280.3 1465.8" id="242,29" /><path d="M 226.1 1479.8 L 226.1 1475.1 L 263.2 1475.1" id="242,28" /><path d="M 226.1 1479.8 L 226.1 1484.5 L 289.1 1484.5" id="242,27" /><path d="M 226.1 1479.8 L 226.1 1493.9 L 309.6 1493.9" id="242,26" /><path d="M 226.1 1479.8 L 226.1 1503.2 L 297.9 1503.2" id="242,25" /><path d="M 224.9 1545.3 L 224.9 1512.6 L 276.3 1512.6" id="241,24" /><path d="M 224.9 1545.3 L 224.9 1521.9 L 318.6 1521.9" id="241,23" /><path d="M 224.9 1545.3 L 224.9 1531.3 L 300.1 1531.3" id="241,22" /><path d="M 224.9 1545.3 L 224.9 1540.6 L 288.0 1540.6" id="241,21" /><path d="M 224.9 1545.3 L 224.9 1550.0 L 304.1 1550.0" id="241,20" /><path d="M 224.9 1545.3 L 224.9 1559.3 L 300.6 1559.3" id="241,19" /><path d="M 224.9 1545.3 L 224.9 1568.7 L 317.2 1568.7" id="241,18" /><path d="M 224.9 1545.3 L 224.9 1578.0 L 295.9 1578.0" id="241,17" /><path d="M 218.4 1592.0 L 218.4 1587.4 L 322.6 1587.4" id="255,16" /><path d="M 218.4 1592.0 L 218.4 1596.7 L 319.9 1596.7" id="255,15" /><path d="M 195.5 1641.1 L 195.5 1606.1 L 262.6 1606.1" id="254,14" /><path d="M 213.7 1676.2 L 213.7 1615.4 L 295.6 1615.4" id="240,13" /><path d="M 213.7 1676.2 L 213.7 1624.8 L 288.4 1624.8" id="240,12" /><path d="M 213.7 1676.2 L 213.7 1634.1 L 277.1 1634.1" id="240,11" /><path d="M 213.7 1676.2 L 213.7 1643.5 L 264.2 1643.5" id="240,10" /><path d="M 213.7 1676.2 L 213.7 1652.8 L 277.8 1652.8" id="240,9" /><path d="M 213.7 1676.2 L 213.7 1662.2 L 321.2 1662.2" id="240,8" /><path d="M 213.7 1676.2 L 213.7 1671.5 L 277.9 1671.5" id="240,7" /><path d="M 213.7 1676.2 L 213.7 1680.9 L 311.5 1680.9" id="240,6" /><path d="M 213.7 1676.2 L 213.7 1690.2 L 269.7 1690.2" id="240,5" /><path d="M 213.7 1676.2 L 213.7 1699.6 L 304.1 1699.6" id="240,4" /><path d="M 213.7 1676.2 L 213.7 1708.9 L 253.6 1708.9" id="240,3" /><path d="M 213.7 1676.2 L 213.7 1718.3 L 241.6 1718.3" id="240,2" /><path d="M 213.7 1676.2 L 213.7 1727.6 L 302.1 1727.6" id="240,1" /><path d="M 213.7 1676.2 L 213.7 1737.0 L 288.9 1737.0" id="240,0" /></g><g class="toytree-AlignEdges" style="stroke:rgb(66.3%,66.3%,66.3%);stroke-dasharray:2, 4;stroke-linecap:round;stroke-opacity:1.0;stroke-width:2"><path d="M 432.2 1737.0 L 288.9 1737.0" /><path d="M 432.2 1727.6 L 302.1 1727.6" /><path d="M 432.2 1718.3 L 241.6 1718.3" /><path d="M 432.2 1708.9 L 253.6 1708.9" /><path d="M 432.2 1699.6 L 304.1 1699.6" /><path d="M 432.2 1690.2 L 269.7 1690.2" /><path d="M 432.2 1680.9 L 311.5 1680.9" /><path d="M 432.2 1671.5 L 277.9 1671.5" /><path d="M 432.2 1662.2 L 321.2 1662.2" /><path d="M 432.2 1652.8 L 277.8 1652.8" /><path d="M 432.2 1643.5 L 264.2 1643.5" /><path d="M 432.2 1634.1 L 277.1 1634.1" /><path d="M 432.2 1624.8 L 288.4 1624.8" /><path d="M 432.2 1615.4 L 295.6 1615.4" /><path d="M 432.2 1606.1 L 262.6 1606.1" /><path d="M 432.2 1596.7 L 319.9 1596.7" /><path d="M 432.2 1587.4 L 322.6 1587.4" /><path d="M 432.2 1578.0 L 295.9 1578.0" /><path d="M 432.2 1568.7 L 317.2 1568.7" /><path d="M 432.2 1559.3 L 300.6 1559.3" /><path d="M 432.2 1550.0 L 304.1 1550.0" /><path d="M 432.2 1540.6 L 288.0 1540.6" /><path d="M 432.2 1531.3 L 300.1 1531.3" /><path d="M 432.2 1521.9 L 318.6 1521.9" /><path d="M 432.2 1512.6 L 276.3 1512.6" /><path d="M 432.2 1503.2 L 297.9 1503.2" /><path d="M 432.2 1493.9 L 309.6 1493.9" /><path d="M 432.2 1484.5 L 289.1 1484.5" /><path d="M 432.2 1475.1 L 263.2 1475.1" /><path d="M 432.2 1465.8 L 280.3 1465.8" /><path d="M 432.2 1456.4 L 292.0 1456.4" /><path d="M 432.2 1447.1 L 429.1 1447.1" /><path d="M 432.2 1437.7 L 424.5 1437.7" /><path d="M 432.2 1428.4 L 417.6 1428.4" /><path d="M 432.2 1419.0 L 390.2 1419.0" /><path d="M 432.2 1409.7 L 385.9 1409.7" /><path d="M 432.2 1400.3 L 396.6 1400.3" /><path d="M 432.2 1391.0 L 378.4 1391.0" /><path d="M 432.2 1381.6 L 366.7 1381.6" /><path d="M 432.2 1372.3 L 358.9 1372.3" /><path d="M 432.2 1362.9 L 381.3 1362.9" /><path d="M 432.2 1353.6 L 369.9 1353.6" /><path d="M 432.2 1344.2 L 417.7 1344.2" /><path d="M 432.2 1334.9 L 416.7 1334.9" /><path d="M 432.2 1325.5 L 432.2 1325.5" /><path d="M 432.2 1316.2 L 413.4 1316.2" /><path d="M 432.2 1306.8 L 422.4 1306.8" /><path d="M 432.2 1297.5 L 429.8 1297.5" /><path d="M 432.2 1288.1 L 389.9 1288.1" /><path d="M 432.2 1278.8 L 388.7 1278.8" /><path d="M 432.2 1269.4 L 406.4 1269.4" /><path d="M 432.2 1260.1 L 394.3 1260.1" /><path d="M 432.2 1250.7 L 387.8 1250.7" /><path d="M 432.2 1241.3 L 391.8 1241.3" /><path d="M 432.2 1232.0 L 395.1 1232.0" /><path d="M 432.2 1222.6 L 402.2 1222.6" /><path d="M 432.2 1213.3 L 387.5 1213.3" /><path d="M 432.2 1203.9 L 397.3 1203.9" /><path d="M 432.2 1194.6 L 380.5 1194.6" /><path d="M 432.2 1185.2 L 385.5 1185.2" /><path d="M 432.2 1175.9 L 344.4 1175.9" /><path d="M 432.2 1166.5 L 362.6 1166.5" /><path d="M 432.2 1157.2 L 352.1 1157.2" /><path d="M 432.2 1147.8 L 352.8 1147.8" /><path d="M 432.2 1138.5 L 366.9 1138.5" /><path d="M 432.2 1129.1 L 376.4 1129.1" /><path d="M 432.2 1119.8 L 363.2 1119.8" /><path d="M 432.2 1110.4 L 364.0 1110.4" /><path d="M 432.2 1101.1 L 378.6 1101.1" /><path d="M 432.2 1091.7 L 383.6 1091.7" /><path d="M 432.2 1082.4 L 374.4 1082.4" /><path d="M 432.2 1073.0 L 367.1 1073.0" /><path d="M 432.2 1063.7 L 382.2 1063.7" /><path d="M 432.2 1054.3 L 345.2 1054.3" /><path d="M 432.2 1045.0 L 358.4 1045.0" /><path d="M 432.2 1035.6 L 331.5 1035.6" /><path d="M 432.2 1026.3 L 354.2 1026.3" /><path d="M 432.2 1016.9 L 361.0 1016.9" /><path d="M 432.2 1007.5 L 393.2 1007.5" /><path d="M 432.2 998.2 L 340.9 998.2" /><path d="M 432.2 988.8 L 374.9 988.8" /><path d="M 432.2 979.5 L 368.9 979.5" /><path d="M 432.2 970.1 L 359.5 970.1" /><path d="M 432.2 960.8 L 362.1 960.8" /><path d="M 432.2 951.4 L 347.7 951.4" /><path d="M 432.2 942.1 L 348.3 942.1" /><path d="M 432.2 932.7 L 358.0 932.7" /><path d="M 432.2 923.4 L 368.4 923.4" /><path d="M 432.2 914.0 L 362.8 914.0" /><path d="M 432.2 904.7 L 369.9 904.7" /><path d="M 432.2 895.3 L 385.9 895.3" /><path d="M 432.2 886.0 L 398.1 886.0" /><path d="M 432.2 876.6 L 323.6 876.6" /><path d="M 432.2 867.3 L 396.2 867.3" /><path d="M 432.2 857.9 L 408.3 857.9" /><path d="M 432.2 848.6 L 382.9 848.6" /><path d="M 432.2 839.2 L 351.4 839.2" /><path d="M 432.2 829.9 L 327.2 829.9" /><path d="M 432.2 820.5 L 379.9 820.5" /><path d="M 432.2 811.2 L 393.9 811.2" /><path d="M 432.2 801.8 L 318.5 801.8" /><path d="M 432.2 792.5 L 326.8 792.5" /><path d="M 432.2 783.1 L 321.1 783.1" /><path d="M 432.2 773.7 L 339.2 773.7" /><path d="M 432.2 764.4 L 382.4 764.4" /><path d="M 432.2 755.0 L 280.1 755.0" /><path d="M 432.2 745.7 L 333.0 745.7" /><path d="M 432.2 736.3 L 325.1 736.3" /><path d="M 432.2 727.0 L 248.4 727.0" /><path d="M 432.2 717.6 L 329.4 717.6" /><path d="M 432.2 708.3 L 333.3 708.3" /><path d="M 432.2 698.9 L 367.6 698.9" /><path d="M 432.2 689.6 L 307.9 689.6" /><path d="M 432.2 680.2 L 380.0 680.2" /><path d="M 432.2 670.9 L 360.6 670.9" /><path d="M 432.2 661.5 L 357.1 661.5" /><path d="M 432.2 652.2 L 322.5 652.2" /><path d="M 432.2 642.8 L 331.1 642.8" /><path d="M 432.2 633.5 L 388.8 633.5" /><path d="M 432.2 624.1 L 329.8 624.1" /><path d="M 432.2 614.8 L 375.3 614.8" /><path d="M 432.2 605.4 L 347.1 605.4" /><path d="M 432.2 596.1 L 343.9 596.1" /><path d="M 432.2 586.7 L 310.9 586.7" /><path d="M 432.2 577.4 L 317.7 577.4" /><path d="M 432.2 568.0 L 328.9 568.0" /><path d="M 432.2 558.7 L 320.9 558.7" /><path d="M 432.2 549.3 L 303.8 549.3" /><path d="M 432.2 539.9 L 361.3 539.9" /><path d="M 432.2 530.6 L 341.0 530.6" /><path d="M 432.2 521.2 L 333.3 521.2" /><path d="M 432.2 511.9 L 292.6 511.9" /><path d="M 432.2 502.5 L 338.7 502.5" /><path d="M 432.2 493.2 L 328.3 493.2" /><path d="M 432.2 483.8 L 328.8 483.8" /><path d="M 432.2 474.5 L 321.9 474.5" /><path d="M 432.2 465.1 L 341.8 465.1" /><path d="M 432.2 455.8 L 300.9 455.8" /><path d="M 432.2 446.4 L 346.6 446.4" /><path d="M 432.2 437.1 L 327.3 437.1" /><path d="M 432.2 427.7 L 246.6 427.7" /><path d="M 432.2 418.4 L 277.9 418.4" /><path d="M 432.2 409.0 L 278.7 409.0" /><path d="M 432.2 399.7 L 286.2 399.7" /><path d="M 432.2 390.3 L 320.4 390.3" /><path d="M 432.2 381.0 L 333.8 381.0" /><path d="M 432.2 371.6 L 342.2 371.6" /><path d="M 432.2 362.3 L 353.2 362.3" /><path d="M 432.2 352.9 L 302.7 352.9" /><path d="M 432.2 343.6 L 337.1 343.6" /><path d="M 432.2 334.2 L 347.3 334.2" /><path d="M 432.2 324.9 L 318.2 324.9" /><path d="M 432.2 315.5 L 347.0 315.5" /><path d="M 432.2 306.1 L 327.6 306.1" /><path d="M 432.2 296.8 L 328.1 296.8" /><path d="M 432.2 287.4 L 305.2 287.4" /><path d="M 432.2 278.1 L 348.4 278.1" /><path d="M 432.2 268.7 L 337.9 268.7" /><path d="M 432.2 259.4 L 320.7 259.4" /><path d="M 432.2 250.0 L 369.1 250.0" /><path d="M 432.2 240.7 L 318.0 240.7" /><path d="M 432.2 231.3 L 336.3 231.3" /><path d="M 432.2 222.0 L 325.5 222.0" /><path d="M 432.2 212.6 L 310.9 212.6" /><path d="M 432.2 203.3 L 312.0 203.3" /><path d="M 432.2 193.9 L 341.0 193.9" /><path d="M 432.2 184.6 L 323.6 184.6" /><path d="M 432.2 175.2 L 309.5 175.2" /><path d="M 432.2 165.9 L 238.3 165.9" /><path d="M 432.2 156.5 L 336.8 156.5" /><path d="M 432.2 147.2 L 316.4 147.2" /><path d="M 432.2 137.8 L 334.4 137.8" /><path d="M 432.2 128.5 L 286.7 128.5" /><path d="M 432.2 119.1 L 310.4 119.1" /><path d="M 432.2 109.8 L 333.7 109.8" /><path d="M 432.2 100.4 L 304.3 100.4" /><path d="M 432.2 91.1 L 279.7 91.1" /><path d="M 432.2 81.7 L 292.2 81.7" /><path d="M 432.2 72.4 L 282.6 72.4" /><path d="M 432.2 63.0 L 251.1 63.0" /></g><g class="toytree-Nodes" style="fill:rgb(40%,76.1%,64.7%);fill-opacity:1.0;stroke:rgb(0%,0%,0%);stroke-opacity:1.0;stroke-width:1"><g fill="rgb(100%,100%,100%)" fill-opacity="1.0" id="node-0" transform="translate(288.886,1737.002)"><circle r="0.0" /></g><g fill="rgb(100%,100%,100%)" fill-opacity="1.0" id="node-1" transform="translate(302.072,1727.650)"><circle r="0.0" /></g><g fill="rgb(100%,100%,100%)" fill-opacity="1.0" id="node-2" transform="translate(241.644,1718.298)"><circle r="0.0" /></g><g fill="rgb(100%,100%,100%)" fill-opacity="1.0" id="node-3" transform="translate(253.592,1708.946)"><circle r="0.0" /></g><g fill="rgb(100%,100%,100%)" fill-opacity="1.0" id="node-4" transform="translate(304.141,1699.594)"><circle r="0.0" /></g><g fill="rgb(100%,100%,100%)" fill-opacity="1.0" id="node-5" transform="translate(269.686,1690.242)"><circle r="0.0" /></g><g fill="rgb(100%,100%,100%)" fill-opacity="1.0" id="node-6" transform="translate(311.508,1680.890)"><circle r="0.0" /></g><g fill="rgb(100%,100%,100%)" fill-opacity="1.0" id="node-7" transform="translate(277.915,1671.538)"><circle r="0.0" /></g><g fill="rgb(100%,100%,100%)" fill-opacity="1.0" id="node-8" transform="translate(321.175,1662.186)"><circle r="0.0" /></g><g fill="rgb(100%,100%,100%)" fill-opacity="1.0" id="node-9" transform="translate(277.798,1652.834)"><circle r="0.0" /></g><g fill="rgb(100%,100%,100%)" fill-opacity="1.0" id="node-10" transform="translate(264.195,1643.482)"><circle r="0.0" /></g><g fill="rgb(100%,100%,100%)" fill-opacity="1.0" id="node-11" transform="translate(277.117,1634.130)"><circle r="0.0" /></g><g fill="rgb(100%,100%,100%)" fill-opacity="1.0" id="node-12" transform="translate(288.416,1624.778)"><circle r="0.0" /></g><g fill="rgb(100%,100%,100%)" fill-opacity="1.0" id="node-13" transform="translate(295.557,1615.426)"><circle r="0.0" /></g><g fill="rgb(100%,100%,100%)" fill-opacity="1.0" id="node-14" transform="translate(262.597,1606.074)"><circle r="0.0" /></g><g fill="rgb(100%,100%,100%)" fill-opacity="1.0" id="node-15" transform="translate(319.865,1596.722)"><circle r="0.0" /></g><g fill="rgb(100%,100%,100%)" fill-opacity="1.0" id="node-16" transform="translate(322.568,1587.370)"><circle r="0.0" /></g><g fill="rgb(100%,100%,100%)" fill-opacity="1.0" id="node-17" transform="translate(295.869,1578.018)"><circle r="0.0" /></g><g fill="rgb(100%,100%,100%)" fill-opacity="1.0" id="node-18" transform="translate(317.218,1568.666)"><circle r="0.0" /></g><g fill="rgb(100%,100%,100%)" fill-opacity="1.0" id="node-19" transform="translate(300.580,1559.314)"><circle r="0.0" /></g><g fill="rgb(100%,100%,100%)" fill-opacity="1.0" id="node-20" transform="translate(304.119,1549.962)"><circle r="0.0" /></g><g fill="rgb(100%,100%,100%)" fill-opacity="1.0" id="node-21" transform="translate(287.993,1540.610)"><circle r="0.0" /></g><g fill="rgb(100%,100%,100%)" fill-opacity="1.0" id="node-22" transform="translate(300.058,1531.258)"><circle r="0.0" /></g><g fill="rgb(100%,100%,100%)" fill-opacity="1.0" id="node-23" transform="translate(318.608,1521.906)"><circle r="0.0" /></g><g fill="rgb(100%,100%,100%)" fill-opacity="1.0" id="node-24" transform="translate(276.341,1512.554)"><circle r="0.0" /></g><g fill="rgb(100%,100%,100%)" fill-opacity="1.0" id="node-25" transform="translate(297.925,1503.202)"><circle r="0.0" /></g><g fill="rgb(100%,100%,100%)" fill-opacity="1.0" id="node-26" transform="translate(309.608,1493.850)"><circle r="0.0" /></g><g fill="rgb(100%,100%,100%)" fill-opacity="1.0" id="node-27" transform="translate(289.052,1484.499)"><circle r="0.0" /></g><g fill="rgb(100%,100%,100%)" fill-opacity="1.0" id="node-28" transform="translate(263.184,1475.147)"><circle r="0.0" /></g><g fill="rgb(100%,100%,100%)" fill-opacity="1.0" id="node-29" transform="translate(280.350,1465.795)"><circle r="0.0" /></g><g fill="rgb(100%,100%,100%)" fill-opacity="1.0" id="node-30" transform="translate(291.995,1456.443)"><circle r="0.0" /></g><g fill="rgb(100%,100%,100%)" fill-opacity="1.0" id="node-31" transform="translate(429.142,1447.091)"><circle r="0.0" /></g><g fill="rgb(100%,100%,100%)" fill-opacity="1.0" id="node-32" transform="translate(424.515,1437.739)"><circle r="0.0" /></g><g fill="rgb(100%,100%,100%)" fill-opacity="1.0" id="node-33" transform="translate(417.552,1428.387)"><circle r="0.0" /></g><g fill="rgb(100%,100%,100%)" fill-opacity="1.0" id="node-34" transform="translate(390.238,1419.035)"><circle r="0.0" /></g><g fill="rgb(100%,100%,100%)" fill-opacity="1.0" id="node-35" transform="translate(385.857,1409.683)"><circle r="0.0" /></g><g fill="rgb(100%,100%,100%)" fill-opacity="1.0" id="node-36" transform="translate(396.553,1400.331)"><circle r="0.0" /></g><g fill="rgb(100%,100%,100%)" fill-opacity="1.0" id="node-37" transform="translate(378.370,1390.979)"><circle r="0.0" /></g><g fill="rgb(100%,100%,100%)" fill-opacity="1.0" id="node-38" transform="translate(366.699,1381.627)"><circle r="0.0" /></g><g fill="rgb(100%,100%,100%)" fill-opacity="1.0" id="node-39" transform="translate(358.915,1372.275)"><circle r="0.0" /></g><g fill="rgb(100%,100%,100%)" fill-opacity="1.0" id="node-40" transform="translate(381.319,1362.923)"><circle r="0.0" /></g><g fill="rgb(100%,100%,100%)" fill-opacity="1.0" id="node-41" transform="translate(369.852,1353.571)"><circle r="0.0" /></g><g fill="rgb(100%,100%,100%)" fill-opacity="1.0" id="node-42" transform="translate(417.722,1344.219)"><circle r="0.0" /></g><g fill="rgb(100%,100%,100%)" fill-opacity="1.0" id="node-43" transform="translate(416.705,1334.867)"><circle r="0.0" /></g><g fill="rgb(100%,100%,100%)" fill-opacity="1.0" id="node-44" transform="translate(432.224,1325.515)"><circle r="0.0" /></g><g fill="rgb(100%,100%,100%)" fill-opacity="1.0" id="node-45" transform="translate(413.378,1316.163)"><circle r="0.0" /></g><g fill="rgb(100%,100%,100%)" fill-opacity="1.0" id="node-46" transform="translate(422.447,1306.811)"><circle r="0.0" /></g><g fill="rgb(100%,100%,100%)" fill-opacity="1.0" id="node-47" transform="translate(429.795,1297.459)"><circle r="0.0" /></g><g fill="rgb(100%,100%,100%)" fill-opacity="1.0" id="node-48" transform="translate(389.934,1288.107)"><circle r="0.0" /></g><g fill="rgb(100%,100%,100%)" fill-opacity="1.0" id="node-49" transform="translate(388.667,1278.755)"><circle r="0.0" /></g><g fill="rgb(100%,100%,100%)" fill-opacity="1.0" id="node-50" transform="translate(406.379,1269.403)"><circle r="0.0" /></g><g fill="rgb(100%,100%,100%)" fill-opacity="1.0" id="node-51" transform="translate(394.319,1260.051)"><circle r="0.0" /></g><g fill="rgb(100%,100%,100%)" fill-opacity="1.0" id="node-52" transform="translate(387.829,1250.699)"><circle r="0.0" /></g><g fill="rgb(100%,100%,100%)" fill-opacity="1.0" id="node-53" transform="translate(391.779,1241.347)"><circle r="0.0" /></g><g fill="rgb(100%,100%,100%)" fill-opacity="1.0" id="node-54" transform="translate(395.070,1231.995)"><circle r="0.0" /></g><g fill="rgb(100%,100%,100%)" fill-opacity="1.0" id="node-55" transform="translate(402.224,1222.643)"><circle r="0.0" /></g><g fill="rgb(100%,100%,100%)" fill-opacity="1.0" id="node-56" transform="translate(387.525,1213.291)"><circle r="0.0" /></g><g fill="rgb(100%,100%,100%)" fill-opacity="1.0" id="node-57" transform="translate(397.284,1203.939)"><circle r="0.0" /></g><g fill="rgb(100%,100%,100%)" fill-opacity="1.0" id="node-58" transform="translate(380.528,1194.587)"><circle r="0.0" /></g><g fill="rgb(100%,100%,100%)" fill-opacity="1.0" id="node-59" transform="translate(385.524,1185.235)"><circle r="0.0" /></g><g fill="rgb(100%,100%,100%)" fill-opacity="1.0" id="node-60" transform="translate(344.433,1175.883)"><circle r="0.0" /></g><g fill="rgb(100%,100%,100%)" fill-opacity="1.0" id="node-61" transform="translate(362.581,1166.531)"><circle r="0.0" /></g><g fill="rgb(100%,100%,100%)" fill-opacity="1.0" id="node-62" transform="translate(352.133,1157.179)"><circle r="0.0" /></g><g fill="rgb(100%,100%,100%)" fill-opacity="1.0" id="node-63" transform="translate(352.846,1147.827)"><circle r="0.0" /></g><g fill="rgb(100%,100%,100%)" fill-opacity="1.0" id="node-64" transform="translate(366.946,1138.475)"><circle r="0.0" /></g><g fill="rgb(100%,100%,100%)" fill-opacity="1.0" id="node-65" transform="translate(376.390,1129.123)"><circle r="0.0" /></g><g fill="rgb(100%,100%,100%)" fill-opacity="1.0" id="node-66" transform="translate(363.179,1119.771)"><circle r="0.0" /></g><g fill="rgb(100%,100%,100%)" fill-opacity="1.0" id="node-67" transform="translate(363.961,1110.419)"><circle r="0.0" /></g><g fill="rgb(100%,100%,100%)" fill-opacity="1.0" id="node-68" transform="translate(378.604,1101.067)"><circle r="0.0" /></g><g fill="rgb(100%,100%,100%)" fill-opacity="1.0" id="node-69" transform="translate(383.648,1091.716)"><circle r="0.0" /></g><g fill="rgb(100%,100%,100%)" fill-opacity="1.0" id="node-70" transform="translate(374.404,1082.364)"><circle r="0.0" /></g><g fill="rgb(100%,100%,100%)" fill-opacity="1.0" id="node-71" transform="translate(367.106,1073.012)"><circle r="0.0" /></g><g fill="rgb(100%,100%,100%)" fill-opacity="1.0" id="node-72" transform="translate(382.155,1063.660)"><circle r="0.0" /></g><g fill="rgb(100%,100%,100%)" fill-opacity="1.0" id="node-73" transform="translate(345.224,1054.308)"><circle r="0.0" /></g><g fill="rgb(100%,100%,100%)" fill-opacity="1.0" id="node-74" transform="translate(358.381,1044.956)"><circle r="0.0" /></g><g fill="rgb(100%,100%,100%)" fill-opacity="1.0" id="node-75" transform="translate(331.459,1035.604)"><circle r="0.0" /></g><g fill="rgb(100%,100%,100%)" fill-opacity="1.0" id="node-76" transform="translate(354.245,1026.252)"><circle r="0.0" /></g><g fill="rgb(100%,100%,100%)" fill-opacity="1.0" id="node-77" transform="translate(360.978,1016.900)"><circle r="0.0" /></g><g fill="rgb(100%,100%,100%)" fill-opacity="1.0" id="node-78" transform="translate(393.209,1007.548)"><circle r="0.0" /></g><g fill="rgb(100%,100%,100%)" fill-opacity="1.0" id="node-79" transform="translate(340.878,998.196)"><circle r="0.0" /></g><g fill="rgb(100%,100%,100%)" fill-opacity="1.0" id="node-80" transform="translate(374.884,988.844)"><circle r="0.0" /></g><g fill="rgb(100%,100%,100%)" fill-opacity="1.0" id="node-81" transform="translate(368.927,979.492)"><circle r="0.0" /></g><g fill="rgb(100%,100%,100%)" fill-opacity="1.0" id="node-82" transform="translate(359.543,970.140)"><circle r="0.0" /></g><g fill="rgb(100%,100%,100%)" fill-opacity="1.0" id="node-83" transform="translate(362.142,960.788)"><circle r="0.0" /></g><g fill="rgb(100%,100%,100%)" fill-opacity="1.0" id="node-84" transform="translate(347.678,951.436)"><circle r="0.0" /></g><g fill="rgb(100%,100%,100%)" fill-opacity="1.0" id="node-85" transform="translate(348.347,942.084)"><circle r="0.0" /></g><g fill="rgb(100%,100%,100%)" fill-opacity="1.0" id="node-86" transform="translate(358.050,932.732)"><circle r="0.0" /></g><g fill="rgb(100%,100%,100%)" fill-opacity="1.0" id="node-87" transform="translate(368.434,923.380)"><circle r="0.0" /></g><g fill="rgb(100%,100%,100%)" fill-opacity="1.0" id="node-88" transform="translate(362.786,914.028)"><circle r="0.0" /></g><g fill="rgb(100%,100%,100%)" fill-opacity="1.0" id="node-89" transform="translate(369.872,904.676)"><circle r="0.0" /></g><g fill="rgb(100%,100%,100%)" fill-opacity="1.0" id="node-90" transform="translate(385.927,895.324)"><circle r="0.0" /></g><g fill="rgb(100%,100%,100%)" fill-opacity="1.0" id="node-91" transform="translate(398.090,885.972)"><circle r="0.0" /></g><g fill="rgb(100%,100%,100%)" fill-opacity="1.0" id="node-92" transform="translate(323.644,876.620)"><circle r="0.0" /></g><g fill="rgb(100%,100%,100%)" fill-opacity="1.0" id="node-93" transform="translate(396.159,867.268)"><circle r="0.0" /></g><g fill="rgb(100%,100%,100%)" fill-opacity="1.0" id="node-94" transform="translate(408.259,857.916)"><circle r="0.0" /></g><g fill="rgb(100%,100%,100%)" fill-opacity="1.0" id="node-95" transform="translate(382.865,848.564)"><circle r="0.0" /></g><g fill="rgb(100%,100%,100%)" fill-opacity="1.0" id="node-96" transform="translate(351.431,839.212)"><circle r="0.0" /></g><g fill="rgb(100%,100%,100%)" fill-opacity="1.0" id="node-97" transform="translate(327.231,829.860)"><circle r="0.0" /></g><g fill="rgb(100%,100%,100%)" fill-opacity="1.0" id="node-98" transform="translate(379.859,820.508)"><circle r="0.0" /></g><g fill="rgb(100%,100%,100%)" fill-opacity="1.0" id="node-99" transform="translate(393.859,811.156)"><circle r="0.0" /></g><g fill="rgb(100%,100%,100%)" fill-opacity="1.0" id="node-100" transform="translate(318.536,801.804)"><circle r="0.0" /></g><g fill="rgb(100%,100%,100%)" fill-opacity="1.0" id="node-101" transform="translate(326.831,792.452)"><circle r="0.0" /></g><g fill="rgb(100%,100%,100%)" fill-opacity="1.0" id="node-102" transform="translate(321.093,783.100)"><circle r="0.0" /></g><g fill="rgb(100%,100%,100%)" fill-opacity="1.0" id="node-103" transform="translate(339.227,773.748)"><circle r="0.0" /></g><g fill="rgb(100%,100%,100%)" fill-opacity="1.0" id="node-104" transform="translate(382.387,764.396)"><circle r="0.0" /></g><g fill="rgb(100%,100%,100%)" fill-opacity="1.0" id="node-105" transform="translate(280.072,755.044)"><circle r="0.0" /></g><g fill="rgb(100%,100%,100%)" fill-opacity="1.0" id="node-106" transform="translate(332.998,745.692)"><circle r="0.0" /></g><g fill="rgb(100%,100%,100%)" fill-opacity="1.0" id="node-107" transform="translate(325.134,736.340)"><circle r="0.0" /></g><g fill="rgb(100%,100%,100%)" fill-opacity="1.0" id="node-108" transform="translate(248.431,726.988)"><circle r="0.0" /></g><g fill="rgb(100%,100%,100%)" fill-opacity="1.0" id="node-109" transform="translate(329.415,717.636)"><circle r="0.0" /></g><g fill="rgb(100%,100%,100%)" fill-opacity="1.0" id="node-110" transform="translate(333.259,708.284)"><circle r="0.0" /></g><g fill="rgb(100%,100%,100%)" fill-opacity="1.0" id="node-111" transform="translate(367.593,698.933)"><circle r="0.0" /></g><g fill="rgb(100%,100%,100%)" fill-opacity="1.0" id="node-112" transform="translate(307.880,689.581)"><circle r="0.0" /></g><g fill="rgb(100%,100%,100%)" fill-opacity="1.0" id="node-113" transform="translate(379.958,680.229)"><circle r="0.0" /></g><g fill="rgb(100%,100%,100%)" fill-opacity="1.0" id="node-114" transform="translate(360.635,670.877)"><circle r="0.0" /></g><g fill="rgb(100%,100%,100%)" fill-opacity="1.0" id="node-115" transform="translate(357.122,661.525)"><circle r="0.0" /></g><g fill="rgb(100%,100%,100%)" fill-opacity="1.0" id="node-116" transform="translate(322.497,652.173)"><circle r="0.0" /></g><g fill="rgb(100%,100%,100%)" fill-opacity="1.0" id="node-117" transform="translate(331.085,642.821)"><circle r="0.0" /></g><g fill="rgb(100%,100%,100%)" fill-opacity="1.0" id="node-118" transform="translate(388.826,633.469)"><circle r="0.0" /></g><g fill="rgb(100%,100%,100%)" fill-opacity="1.0" id="node-119" transform="translate(329.774,624.117)"><circle r="0.0" /></g><g fill="rgb(100%,100%,100%)" fill-opacity="1.0" id="node-120" transform="translate(375.256,614.765)"><circle r="0.0" /></g><g fill="rgb(100%,100%,100%)" fill-opacity="1.0" id="node-121" transform="translate(347.107,605.413)"><circle r="0.0" /></g><g fill="rgb(100%,100%,100%)" fill-opacity="1.0" id="node-122" transform="translate(343.941,596.061)"><circle r="0.0" /></g><g fill="rgb(100%,100%,100%)" fill-opacity="1.0" id="node-123" transform="translate(310.919,586.709)"><circle r="0.0" /></g><g fill="rgb(100%,100%,100%)" fill-opacity="1.0" id="node-124" transform="translate(317.696,577.357)"><circle r="0.0" /></g><g fill="rgb(100%,100%,100%)" fill-opacity="1.0" id="node-125" transform="translate(328.859,568.005)"><circle r="0.0" /></g><g fill="rgb(100%,100%,100%)" fill-opacity="1.0" id="node-126" transform="translate(320.861,558.653)"><circle r="0.0" /></g><g fill="rgb(100%,100%,100%)" fill-opacity="1.0" id="node-127" transform="translate(303.819,549.301)"><circle r="0.0" /></g><g fill="rgb(100%,100%,100%)" fill-opacity="1.0" id="node-128" transform="translate(361.336,539.949)"><circle r="0.0" /></g><g fill="rgb(100%,100%,100%)" fill-opacity="1.0" id="node-129" transform="translate(341.017,530.597)"><circle r="0.0" /></g><g fill="rgb(100%,100%,100%)" fill-opacity="1.0" id="node-130" transform="translate(333.262,521.245)"><circle r="0.0" /></g><g fill="rgb(100%,100%,100%)" fill-opacity="1.0" id="node-131" transform="translate(292.614,511.893)"><circle r="0.0" /></g><g fill="rgb(100%,100%,100%)" fill-opacity="1.0" id="node-132" transform="translate(338.677,502.541)"><circle r="0.0" /></g><g fill="rgb(100%,100%,100%)" fill-opacity="1.0" id="node-133" transform="translate(328.270,493.189)"><circle r="0.0" /></g><g fill="rgb(100%,100%,100%)" fill-opacity="1.0" id="node-134" transform="translate(328.821,483.837)"><circle r="0.0" /></g><g fill="rgb(100%,100%,100%)" fill-opacity="1.0" id="node-135" transform="translate(321.933,474.485)"><circle r="0.0" /></g><g fill="rgb(100%,100%,100%)" fill-opacity="1.0" id="node-136" transform="translate(341.834,465.133)"><circle r="0.0" /></g><g fill="rgb(100%,100%,100%)" fill-opacity="1.0" id="node-137" transform="translate(300.918,455.781)"><circle r="0.0" /></g><g fill="rgb(100%,100%,100%)" fill-opacity="1.0" id="node-138" transform="translate(346.585,446.429)"><circle r="0.0" /></g><g fill="rgb(100%,100%,100%)" fill-opacity="1.0" id="node-139" transform="translate(327.339,437.077)"><circle r="0.0" /></g><g fill="rgb(100%,100%,100%)" fill-opacity="1.0" id="node-140" transform="translate(246.619,427.725)"><circle r="0.0" /></g><g fill="rgb(100%,100%,100%)" fill-opacity="1.0" id="node-141" transform="translate(277.940,418.373)"><circle r="0.0" /></g><g fill="rgb(100%,100%,100%)" fill-opacity="1.0" id="node-142" transform="translate(278.693,409.021)"><circle r="0.0" /></g><g fill="rgb(100%,100%,100%)" fill-opacity="1.0" id="node-143" transform="translate(286.200,399.669)"><circle r="0.0" /></g><g fill="rgb(100%,100%,100%)" fill-opacity="1.0" id="node-144" transform="translate(320.391,390.317)"><circle r="0.0" /></g><g fill="rgb(100%,100%,100%)" fill-opacity="1.0" id="node-145" transform="translate(333.788,380.965)"><circle r="0.0" /></g><g fill="rgb(100%,100%,100%)" fill-opacity="1.0" id="node-146" transform="translate(342.206,371.613)"><circle r="0.0" /></g><g fill="rgb(100%,100%,100%)" fill-opacity="1.0" id="node-147" transform="translate(353.220,362.261)"><circle r="0.0" /></g><g fill="rgb(100%,100%,100%)" fill-opacity="1.0" id="node-148" transform="translate(302.665,352.909)"><circle r="0.0" /></g><g fill="rgb(100%,100%,100%)" fill-opacity="1.0" id="node-149" transform="translate(337.140,343.557)"><circle r="0.0" /></g><g fill="rgb(100%,100%,100%)" fill-opacity="1.0" id="node-150" transform="translate(347.316,334.205)"><circle r="0.0" /></g><g fill="rgb(100%,100%,100%)" fill-opacity="1.0" id="node-151" transform="translate(318.232,324.853)"><circle r="0.0" /></g><g fill="rgb(100%,100%,100%)" fill-opacity="1.0" id="node-152" transform="translate(346.957,315.501)"><circle r="0.0" /></g><g fill="rgb(100%,100%,100%)" fill-opacity="1.0" id="node-153" transform="translate(327.635,306.150)"><circle r="0.0" /></g><g fill="rgb(100%,100%,100%)" fill-opacity="1.0" id="node-154" transform="translate(328.084,296.798)"><circle r="0.0" /></g><g fill="rgb(100%,100%,100%)" fill-opacity="1.0" id="node-155" transform="translate(305.192,287.446)"><circle r="0.0" /></g><g fill="rgb(100%,100%,100%)" fill-opacity="1.0" id="node-156" transform="translate(348.392,278.094)"><circle r="0.0" /></g><g fill="rgb(100%,100%,100%)" fill-opacity="1.0" id="node-157" transform="translate(337.862,268.742)"><circle r="0.0" /></g><g fill="rgb(100%,100%,100%)" fill-opacity="1.0" id="node-158" transform="translate(320.679,259.390)"><circle r="0.0" /></g><g fill="rgb(100%,100%,100%)" fill-opacity="1.0" id="node-159" transform="translate(369.103,250.038)"><circle r="0.0" /></g><g fill="rgb(100%,100%,100%)" fill-opacity="1.0" id="node-160" transform="translate(318.004,240.686)"><circle r="0.0" /></g><g fill="rgb(100%,100%,100%)" fill-opacity="1.0" id="node-161" transform="translate(336.275,231.334)"><circle r="0.0" /></g><g fill="rgb(100%,100%,100%)" fill-opacity="1.0" id="node-162" transform="translate(325.492,221.982)"><circle r="0.0" /></g><g fill="rgb(100%,100%,100%)" fill-opacity="1.0" id="node-163" transform="translate(310.891,212.630)"><circle r="0.0" /></g><g fill="rgb(100%,100%,100%)" fill-opacity="1.0" id="node-164" transform="translate(312.033,203.278)"><circle r="0.0" /></g><g fill="rgb(100%,100%,100%)" fill-opacity="1.0" id="node-165" transform="translate(341.035,193.926)"><circle r="0.0" /></g><g fill="rgb(100%,100%,100%)" fill-opacity="1.0" id="node-166" transform="translate(323.557,184.574)"><circle r="0.0" /></g><g fill="rgb(100%,100%,100%)" fill-opacity="1.0" id="node-167" transform="translate(309.521,175.222)"><circle r="0.0" /></g><g fill="rgb(100%,100%,100%)" fill-opacity="1.0" id="node-168" transform="translate(238.295,165.870)"><circle r="0.0" /></g><g fill="rgb(100%,100%,100%)" fill-opacity="1.0" id="node-169" transform="translate(336.781,156.518)"><circle r="0.0" /></g><g fill="rgb(100%,100%,100%)" fill-opacity="1.0" id="node-170" transform="translate(316.442,147.166)"><circle r="0.0" /></g><g fill="rgb(100%,100%,100%)" fill-opacity="1.0" id="node-171" transform="translate(334.433,137.814)"><circle r="0.0" /></g><g fill="rgb(100%,100%,100%)" fill-opacity="1.0" id="node-172" transform="translate(286.700,128.462)"><circle r="0.0" /></g><g fill="rgb(100%,100%,100%)" fill-opacity="1.0" id="node-173" transform="translate(310.420,119.110)"><circle r="0.0" /></g><g fill="rgb(100%,100%,100%)" fill-opacity="1.0" id="node-174" transform="translate(333.662,109.758)"><circle r="0.0" /></g><g fill="rgb(100%,100%,100%)" fill-opacity="1.0" id="node-175" transform="translate(304.342,100.406)"><circle r="0.0" /></g><g fill="rgb(100%,100%,100%)" fill-opacity="1.0" id="node-176" transform="translate(279.706,91.054)"><circle r="0.0" /></g><g fill="rgb(100%,100%,100%)" fill-opacity="1.0" id="node-177" transform="translate(292.193,81.702)"><circle r="0.0" /></g><g fill="rgb(100%,100%,100%)" fill-opacity="1.0" id="node-178" transform="translate(282.642,72.350)"><circle r="0.0" /></g><g fill="rgb(100%,100%,100%)" fill-opacity="1.0" id="node-179" transform="translate(251.051,62.998)"><circle r="0.0" /></g><g fill="rgb(0%,0%,0%)" fill-opacity="1.0" id="node-180" transform="translate(366.319,1442.415)"><circle r="2.5" /></g><g fill="rgb(0%,0%,0%)" fill-opacity="1.0" id="node-181" transform="translate(354.070,1435.401)"><circle r="2.5" /></g><g fill="rgb(0%,0%,0%)" fill-opacity="1.0" id="node-182" transform="translate(351.404,1414.359)"><circle r="2.5" /></g><g fill="rgb(0%,0%,0%)" fill-opacity="1.0" id="node-183" transform="translate(344.895,1395.655)"><circle r="2.5" /></g><g fill="rgb(0%,0%,0%)" fill-opacity="1.0" id="node-184" transform="translate(356.235,1334.867)"><circle r="2.5" /></g><g fill="rgb(0%,0%,0%)" fill-opacity="1.0" id="node-185" transform="translate(357.676,1302.135)"><circle r="2.5" /></g><g fill="rgb(0%,0%,0%)" fill-opacity="1.0" id="node-186" transform="translate(347.577,1274.079)"><circle r="2.5" /></g><g fill="rgb(0%,0%,0%)" fill-opacity="1.0" id="node-187" transform="translate(346.845,1246.023)"><circle r="2.5" /></g><g fill="rgb(0%,0%,0%)" fill-opacity="1.0" id="node-188" transform="translate(350.456,1227.319)"><circle r="2.5" /></g><g fill="rgb(0%,0%,0%)" fill-opacity="1.0" id="node-189" transform="translate(337.778,1424.880)"><circle r="2.5" /></g><g fill="rgb(0%,0%,0%)" fill-opacity="1.0" id="node-190" transform="translate(336.394,1388.641)"><circle r="2.5" /></g><g fill="rgb(0%,0%,0%)" fill-opacity="1.0" id="node-191" transform="translate(343.207,1317.722)"><circle r="2.5" /></g><g fill="rgb(0%,0%,0%)" fill-opacity="1.0" id="node-192" transform="translate(337.604,1267.065)"><circle r="2.5" /></g><g fill="rgb(0%,0%,0%)" fill-opacity="1.0" id="node-193" transform="translate(335.918,1236.671)"><circle r="2.5" /></g><g fill="rgb(0%,0%,0%)" fill-opacity="1.0" id="node-194" transform="translate(338.151,1208.615)"><circle r="2.5" /></g><g fill="rgb(0%,0%,0%)" fill-opacity="1.0" id="node-195" transform="translate(335.708,1105.743)"><circle r="2.5" /></g><g fill="rgb(0%,0%,0%)" fill-opacity="1.0" id="node-196" transform="translate(329.888,862.592)"><circle r="2.5" /></g><g fill="rgb(0%,0%,0%)" fill-opacity="1.0" id="node-197" transform="translate(308.450,675.553)"><circle r="2.5" /></g><g fill="rgb(0%,0%,0%)" fill-opacity="1.0" id="node-198" transform="translate(325.552,1346.898)"><circle r="2.5" /></g><g fill="rgb(0%,0%,0%)" fill-opacity="1.0" id="node-199" transform="translate(322.407,1222.643)"><circle r="2.5" /></g><g fill="rgb(0%,0%,0%)" fill-opacity="1.0" id="node-200" transform="translate(320.264,1124.447)"><circle r="2.5" /></g><g fill="rgb(0%,0%,0%)" fill-opacity="1.0" id="node-201" transform="translate(320.965,1098.729)"><circle r="2.5" /></g><g fill="rgb(0%,0%,0%)" fill-opacity="1.0" id="node-202" transform="translate(321.787,1077.688)"><circle r="2.5" /></g><g fill="rgb(0%,0%,0%)" fill-opacity="1.0" id="node-203" transform="translate(332.372,890.648)"><circle r="2.5" /></g><g fill="rgb(0%,0%,0%)" fill-opacity="1.0" id="node-204" transform="translate(316.980,855.578)"><circle r="2.5" /></g><g fill="rgb(0%,0%,0%)" fill-opacity="1.0" id="node-205" transform="translate(284.538,668.539)"><circle r="2.5" /></g><g fill="rgb(0%,0%,0%)" fill-opacity="1.0" id="node-206" transform="translate(282.120,638.145)"><circle r="2.5" /></g><g fill="rgb(0%,0%,0%)" fill-opacity="1.0" id="node-207" transform="translate(280.334,619.441)"><circle r="2.5" /></g><g fill="rgb(0%,0%,0%)" fill-opacity="1.0" id="node-208" transform="translate(309.959,1284.770)"><circle r="2.5" /></g><g fill="rgb(0%,0%,0%)" fill-opacity="1.0" id="node-209" transform="translate(307.893,1139.113)"><circle r="2.5" /></g><g fill="rgb(0%,0%,0%)" fill-opacity="1.0" id="node-210" transform="translate(311.435,1012.224)"><circle r="2.5" /></g><g fill="rgb(0%,0%,0%)" fill-opacity="1.0" id="node-211" transform="translate(316.708,984.168)"><circle r="2.5" /></g><g fill="rgb(0%,0%,0%)" fill-opacity="1.0" id="node-212" transform="translate(311.099,946.760)"><circle r="2.5" /></g><g fill="rgb(0%,0%,0%)" fill-opacity="1.0" id="node-213" transform="translate(313.370,928.056)"><circle r="2.5" /></g><g fill="rgb(0%,0%,0%)" fill-opacity="1.0" id="node-214" transform="translate(316.413,903.117)"><circle r="2.5" /></g><g fill="rgb(0%,0%,0%)" fill-opacity="1.0" id="node-215" transform="translate(300.999,847.395)"><circle r="2.5" /></g><g fill="rgb(0%,0%,0%)" fill-opacity="1.0" id="node-216" transform="translate(269.360,660.356)"><circle r="2.5" /></g><g fill="rgb(0%,0%,0%)" fill-opacity="1.0" id="node-217" transform="translate(265.480,628.793)"><circle r="2.5" /></g><g fill="rgb(0%,0%,0%)" fill-opacity="1.0" id="node-218" transform="translate(258.286,568.005)"><circle r="2.5" /></g><g fill="rgb(0%,0%,0%)" fill-opacity="1.0" id="node-219" transform="translate(273.657,535.273)"><circle r="2.5" /></g><g fill="rgb(0%,0%,0%)" fill-opacity="1.0" id="node-220" transform="translate(296.660,1211.942)"><circle r="2.5" /></g><g fill="rgb(0%,0%,0%)" fill-opacity="1.0" id="node-221" transform="translate(299.702,988.714)"><circle r="2.5" /></g><g fill="rgb(100%,100%,100%)" fill-opacity="1.0" id="node-222" transform="translate(285.202,838.628)"><circle r="2.5" /></g><g fill="rgb(0%,0%,0%)" fill-opacity="1.0" id="node-223" transform="translate(298.231,815.832)"><circle r="2.5" /></g><g fill="rgb(0%,0%,0%)" fill-opacity="1.0" id="node-224" transform="translate(241.692,644.574)"><circle r="2.5" /></g><g fill="rgb(0%,0%,0%)" fill-opacity="1.0" id="node-225" transform="translate(278.797,600.737)"><circle r="2.5" /></g><g fill="rgb(0%,0%,0%)" fill-opacity="1.0" id="node-226" transform="translate(242.954,551.639)"><circle r="2.5" /></g><g fill="rgb(0%,0%,0%)" fill-opacity="1.0" id="node-227" transform="translate(254.560,511.893)"><circle r="2.5" /></g><g fill="rgb(0%,0%,0%)" fill-opacity="1.0" id="node-228" transform="translate(267.652,366.937)"><circle r="2.5" /></g><g fill="rgb(0%,0%,0%)" fill-opacity="1.0" id="node-229" transform="translate(285.896,1100.328)"><circle r="2.5" /></g><g fill="rgb(0%,0%,0%)" fill-opacity="1.0" id="node-230" transform="translate(274.201,827.230)"><circle r="2.5" /></g><g fill="rgb(0%,0%,0%)" fill-opacity="1.0" id="node-231" transform="translate(275.718,797.128)"><circle r="2.5" /></g><g fill="rgb(0%,0%,0%)" fill-opacity="1.0" id="node-232" transform="translate(224.659,622.655)"><circle r="2.5" /></g><g fill="rgb(0%,0%,0%)" fill-opacity="1.0" id="node-233" transform="translate(224.562,531.766)"><circle r="2.5" /></g><g fill="rgb(0%,0%,0%)" fill-opacity="1.0" id="node-234" transform="translate(270.645,488.513)"><circle r="2.5" /></g><g fill="rgb(0%,0%,0%)" fill-opacity="1.0" id="node-235" transform="translate(247.356,366.937)"><circle r="2.5" /></g><g fill="rgb(0%,0%,0%)" fill-opacity="1.0" id="node-236" transform="translate(250.169,329.529)"><circle r="2.5" /></g><g fill="rgb(0%,0%,0%)" fill-opacity="1.0" id="node-237" transform="translate(289.569,273.418)"><circle r="2.5" /></g><g fill="rgb(0%,0%,0%)" fill-opacity="1.0" id="node-238" transform="translate(246.752,254.714)"><circle r="2.5" /></g><g fill="rgb(0%,0%,0%)" fill-opacity="1.0" id="node-239" transform="translate(255.965,236.010)"><circle r="2.5" /></g><g fill="rgb(0%,0%,0%)" fill-opacity="1.0" id="node-240" transform="translate(213.696,1676.214)"><circle r="2.5" /></g><g fill="rgb(0%,0%,0%)" fill-opacity="1.0" id="node-241" transform="translate(224.850,1545.286)"><circle r="2.5" /></g><g fill="rgb(0%,0%,0%)" fill-opacity="1.0" id="node-242" transform="translate(226.069,1479.823)"><circle r="2.5" /></g><g fill="rgb(0%,0%,0%)" fill-opacity="1.0" id="node-243" transform="translate(246.610,988.474)"><circle r="2.5" /></g><g fill="rgb(0%,0%,0%)" fill-opacity="1.0" id="node-244" transform="translate(259.960,812.179)"><circle r="2.5" /></g><g fill="rgb(0%,0%,0%)" fill-opacity="1.0" id="node-245" transform="translate(264.678,778.424)"><circle r="2.5" /></g><g fill="rgb(0%,0%,0%)" fill-opacity="1.0" id="node-246" transform="translate(277.963,703.609)"><circle r="2.5" /></g><g fill="rgb(0%,0%,0%)" fill-opacity="1.0" id="node-247" transform="translate(209.859,577.211)"><circle r="2.5" /></g><g fill="rgb(0%,0%,0%)" fill-opacity="1.0" id="node-248" transform="translate(252.620,481.499)"><circle r="2.5" /></g><g fill="rgb(0%,0%,0%)" fill-opacity="1.0" id="node-249" transform="translate(226.840,348.233)"><circle r="2.5" /></g><g fill="rgb(0%,0%,0%)" fill-opacity="1.0" id="node-250" transform="translate(260.481,295.862)"><circle r="2.5" /></g><g fill="rgb(0%,0%,0%)" fill-opacity="1.0" id="node-251" transform="translate(223.795,245.362)"><circle r="2.5" /></g><g fill="rgb(0%,0%,0%)" fill-opacity="1.0" id="node-252" transform="translate(233.419,207.954)"><circle r="2.5" /></g><g fill="rgb(0%,0%,0%)" fill-opacity="1.0" id="node-253" transform="translate(253.582,151.842)"><circle r="2.5" /></g><g fill="rgb(0%,0%,0%)" fill-opacity="1.0" id="node-254" transform="translate(195.463,1641.144)"><circle r="2.5" /></g><g fill="rgb(0%,0%,0%)" fill-opacity="1.0" id="node-255" transform="translate(218.427,1592.046)"><circle r="2.5" /></g><g fill="rgb(0%,0%,0%)" fill-opacity="1.0" id="node-256" transform="translate(205.967,1512.554)"><circle r="2.5" /></g><g fill="rgb(0%,0%,0%)" fill-opacity="1.0" id="node-257" transform="translate(200.532,900.327)"><circle r="2.5" /></g><g fill="rgb(0%,0%,0%)" fill-opacity="1.0" id="node-258" transform="translate(229.965,771.410)"><circle r="2.5" /></g><g fill="rgb(0%,0%,0%)" fill-opacity="1.0" id="node-259" transform="translate(214.687,750.368)"><circle r="2.5" /></g><g fill="rgb(0%,0%,0%)" fill-opacity="1.0" id="node-260" transform="translate(222.061,731.664)"><circle r="2.5" /></g><g fill="rgb(0%,0%,0%)" fill-opacity="1.0" id="node-261" transform="translate(214.702,696.595)"><circle r="2.5" /></g><g fill="rgb(0%,0%,0%)" fill-opacity="1.0" id="node-262" transform="translate(193.746,529.355)"><circle r="2.5" /></g><g fill="rgb(0%,0%,0%)" fill-opacity="1.0" id="node-263" transform="translate(240.540,451.105)"><circle r="2.5" /></g><g fill="rgb(0%,0%,0%)" fill-opacity="1.0" id="node-264" transform="translate(203.683,322.048)"><circle r="2.5" /></g><g fill="rgb(0%,0%,0%)" fill-opacity="1.0" id="node-265" transform="translate(205.614,226.658)"><circle r="2.5" /></g><g fill="rgb(0%,0%,0%)" fill-opacity="1.0" id="node-266" transform="translate(226.702,179.898)"><circle r="2.5" /></g><g fill="rgb(0%,0%,0%)" fill-opacity="1.0" id="node-267" transform="translate(232.761,144.828)"><circle r="2.5" /></g><g fill="rgb(0%,0%,0%)" fill-opacity="1.0" id="node-268" transform="translate(184.923,1034.861)"><circle r="2.5" /></g><g fill="rgb(0%,0%,0%)" fill-opacity="1.0" id="node-269" transform="translate(178.820,490.230)"><circle r="2.5" /></g><g fill="rgb(0%,0%,0%)" fill-opacity="1.0" id="node-270" transform="translate(188.846,274.353)"><circle r="2.5" /></g><g fill="rgb(0%,0%,0%)" fill-opacity="1.0" id="node-271" transform="translate(206.267,163.532)"><circle r="2.5" /></g><g fill="rgb(0%,0%,0%)" fill-opacity="1.0" id="node-272" transform="translate(223.758,105.082)"><circle r="2.5" /></g><g fill="rgb(0%,0%,0%)" fill-opacity="1.0" id="node-273" transform="translate(164.096,762.545)"><circle r="2.5" /></g><g fill="rgb(0%,0%,0%)" fill-opacity="1.0" id="node-274" transform="translate(215.511,413.697)"><circle r="2.5" /></g><g fill="rgb(0%,0%,0%)" fill-opacity="1.0" id="node-275" transform="translate(171.984,218.942)"><circle r="2.5" /></g><g fill="rgb(0%,0%,0%)" fill-opacity="1.0" id="node-276" transform="translate(175.805,123.786)"><circle r="2.5" /></g><g fill="rgb(0%,0%,0%)" fill-opacity="1.0" id="node-277" transform="translate(198.300,98.068)"><circle r="2.5" /></g><g fill="rgb(0%,0%,0%)" fill-opacity="1.0" id="node-278" transform="translate(144.606,588.121)"><circle r="2.5" /></g><g fill="rgb(0%,0%,0%)" fill-opacity="1.0" id="node-279" transform="translate(152.084,171.364)"><circle r="2.5" /></g><g fill="rgb(0%,0%,0%)" fill-opacity="1.0" id="node-280" transform="translate(176.395,89.885)"><circle r="2.5" /></g><g fill="rgb(0%,0%,0%)" fill-opacity="1.0" id="node-281" transform="translate(139.067,67.674)"><circle r="2.5" /></g><g fill="rgb(0%,0%,0%)" fill-opacity="1.0" id="node-282" transform="translate(117.092,379.743)"><circle r="2.5" /></g><g fill="rgb(0%,0%,0%)" fill-opacity="1.0" id="node-283" transform="translate(117.092,78.780)"><circle r="2.5" /></g><g fill="rgb(0%,0%,0%)" fill-opacity="1.0" id="node-284" transform="translate(50.000,229.261)"><circle r="0.0" /></g></g><g class="toytree-NodeLabels" style="fill:rgb(0%,0%,0%);fill-opacity:1.0;font-size:8;stroke:none;text-shadow:0.5px 0.5px #fff, -0.5px 0.5px #fff, 0.5px -0.5px #fff, -0.5px -0.5px #fff"><g transform="translate(290.75,840.67)"><text>84</text></g></g><g class="toytree-TipLabels" style="fill:rgb(14.9%,14.9%,14.9%);fill-opacity:1.0;font-family:helvetica;font-size:12px;font-weight:normal;stroke:none;white-space:pre"><g transform="translate(432.22,1737.00)rotate(0)"><text style="" x="15.00" y="3.07">V_dumatorum_2</text></g><g transform="translate(432.22,1727.65)rotate(0)"><text style="" x="15.00" y="3.07">V_dumatorum_1</text></g><g transform="translate(432.22,1718.30)rotate(0)"><text style="" x="15.00" y="3.07">V_seemenii_4</text></g><g transform="translate(432.22,1708.95)rotate(0)"><text style="" x="15.00" y="3.07">V_seemenii_3</text></g><g transform="translate(432.22,1699.59)rotate(0)"><text style="" x="15.00" y="3.07">V_seemenii_2</text></g><g transform="translate(432.22,1690.24)rotate(0)"><text style="" x="15.00" y="3.07">V_seemenii_1</text></g><g transform="translate(432.22,1680.89)rotate(0)"><text style="" x="15.00" y="3.07">V_toronis</text></g><g transform="translate(432.22,1671.54)rotate(0)"><text style="" x="15.00" y="3.07">V_reticulatum_5</text></g><g transform="translate(432.22,1662.19)rotate(0)"><text style="" x="15.00" y="3.07">V_reticulatum_4</text></g><g transform="translate(432.22,1652.83)rotate(0)"><text style="" x="15.00" y="3.07">V_reticulatum_3</text></g><g transform="translate(432.22,1643.48)rotate(0)"><text style="" x="15.00" y="3.07">V_ayavacense_1</text></g><g transform="translate(432.22,1634.13)rotate(0)"><text style="" x="15.00" y="3.07">V_ayavacense_2</text></g><g transform="translate(432.22,1624.78)rotate(0)"><text style="" x="15.00" y="3.07">V_ayavacense_3</text></g><g transform="translate(432.22,1615.43)rotate(0)"><text style="" x="15.00" y="3.07">V_reticulatum_2</text></g><g transform="translate(432.22,1606.07)rotate(0)"><text style="" x="15.00" y="3.07">V_reticulatum_1</text></g><g transform="translate(432.22,1596.72)rotate(0)"><text style="" x="15.00" y="3.07">V_triphyllum_new_6</text></g><g transform="translate(432.22,1587.37)rotate(0)"><text style="" x="15.00" y="3.07">V_triphyllum_new_5</text></g><g transform="translate(432.22,1578.02)rotate(0)"><text style="" x="15.00" y="3.07">V_triphyllum_new_4</text></g><g transform="translate(432.22,1568.67)rotate(0)"><text style="" x="15.00" y="3.07">V_triphyllum_new_3</text></g><g transform="translate(432.22,1559.31)rotate(0)"><text style="" x="15.00" y="3.07">V_triphyllum_new_2</text></g><g transform="translate(432.22,1549.96)rotate(0)"><text style="" x="15.00" y="3.07">V_triphyllum_new_1</text></g><g transform="translate(432.22,1540.61)rotate(0)"><text style="" x="15.00" y="3.07">V_pichinchense_2</text></g><g transform="translate(432.22,1531.26)rotate(0)"><text style="" x="15.00" y="3.07">V_pichinchense_1</text></g><g transform="translate(432.22,1521.91)rotate(0)"><text style="" x="15.00" y="3.07">V_hallii_2</text></g><g transform="translate(432.22,1512.55)rotate(0)"><text style="" x="15.00" y="3.07">V_hallii_1</text></g><g transform="translate(432.22,1503.20)rotate(0)"><text style="" x="15.00" y="3.07">V_jamesonii_2</text></g><g transform="translate(432.22,1493.85)rotate(0)"><text style="" x="15.00" y="3.07">V_jamesonii_1</text></g><g transform="translate(432.22,1484.50)rotate(0)"><text style="" x="15.00" y="3.07">V_triphyllum_10</text></g><g transform="translate(432.22,1475.15)rotate(0)"><text style="" x="15.00" y="3.07">V_triphyllum_9</text></g><g transform="translate(432.22,1465.79)rotate(0)"><text style="" x="15.00" y="3.07">V_triphyllum_8</text></g><g transform="translate(432.22,1456.44)rotate(0)"><text style="" x="15.00" y="3.07">V_triphyllum_7</text></g><g transform="translate(432.22,1447.09)rotate(0)"><text style="" x="15.00" y="3.07">V_triphyllum_6</text></g><g transform="translate(432.22,1437.74)rotate(0)"><text style="" x="15.00" y="3.07">V_triphyllum_5</text></g><g transform="translate(432.22,1428.39)rotate(0)"><text style="" x="15.00" y="3.07">V_triphyllum_4</text></g><g transform="translate(432.22,1419.03)rotate(0)"><text style="" x="15.00" y="3.07">V_triphyllum_3</text></g><g transform="translate(432.22,1409.68)rotate(0)"><text style="" x="15.00" y="3.07">V_triphyllum_2</text></g><g transform="translate(432.22,1400.33)rotate(0)"><text style="" x="15.00" y="3.07">V_lasiophyllum_2</text></g><g transform="translate(432.22,1390.98)rotate(0)"><text style="" x="15.00" y="3.07">V_lasiophyllum_1</text></g><g transform="translate(432.22,1381.63)rotate(0)"><text style="" x="15.00" y="3.07">V_tinoides_2_3</text></g><g transform="translate(432.22,1372.27)rotate(0)"><text style="" x="15.00" y="3.07">V_tinoides_2_2</text></g><g transform="translate(432.22,1362.92)rotate(0)"><text style="" x="15.00" y="3.07">V_tinoides_2_1</text></g><g transform="translate(432.22,1353.57)rotate(0)"><text style="" x="15.00" y="3.07">V_triphyllum_1</text></g><g transform="translate(432.22,1344.22)rotate(0)"><text style="" x="15.00" y="3.07">V_subsessile_5</text></g><g transform="translate(432.22,1334.87)rotate(0)"><text style="" x="15.00" y="3.07">V_subsessile_4</text></g><g transform="translate(432.22,1325.51)rotate(0)"><text style="" x="15.00" y="3.07">V_subsessile_3</text></g><g transform="translate(432.22,1316.16)rotate(0)"><text style="" x="15.00" y="3.07">V_subsessile_2</text></g><g transform="translate(432.22,1306.81)rotate(0)"><text style="" x="15.00" y="3.07">V_tinoides_1_5</text></g><g transform="translate(432.22,1297.46)rotate(0)"><text style="" x="15.00" y="3.07">V_tinoides_1_4</text></g><g transform="translate(432.22,1288.11)rotate(0)"><text style="" x="15.00" y="3.07">V_tinoides_1_3</text></g><g transform="translate(432.22,1278.76)rotate(0)"><text style="" x="15.00" y="3.07">V_tinoides_1_2</text></g><g transform="translate(432.22,1269.40)rotate(0)"><text style="" x="15.00" y="3.07">V_tinoides_1_1</text></g><g transform="translate(432.22,1260.05)rotate(0)"><text style="" x="15.00" y="3.07">V_undulatum_9</text></g><g transform="translate(432.22,1250.70)rotate(0)"><text style="" x="15.00" y="3.07">V_undulatum_8</text></g><g transform="translate(432.22,1241.35)rotate(0)"><text style="" x="15.00" y="3.07">V_undulatum_7</text></g><g transform="translate(432.22,1232.00)rotate(0)"><text style="" x="15.00" y="3.07">V_undulatum_6</text></g><g transform="translate(432.22,1222.64)rotate(0)"><text style="" x="15.00" y="3.07">V_undulatum_5</text></g><g transform="translate(432.22,1213.29)rotate(0)"><text style="" x="15.00" y="3.07">V_undulatum_4</text></g><g transform="translate(432.22,1203.94)rotate(0)"><text style="" x="15.00" y="3.07">V_undulatum_3</text></g><g transform="translate(432.22,1194.59)rotate(0)"><text style="" x="15.00" y="3.07">V_subsessile_1</text></g><g transform="translate(432.22,1185.24)rotate(0)"><text style="" x="15.00" y="3.07">V_undulatum_2</text></g><g transform="translate(432.22,1175.88)rotate(0)"><text style="" x="15.00" y="3.07">V_undulatum_1</text></g><g transform="translate(432.22,1166.53)rotate(0)"><text style="" x="15.00" y="3.07">V_costaricanum</text></g><g transform="translate(432.22,1157.18)rotate(0)"><text style="" x="15.00" y="3.07">V_hartwegii_9</text></g><g transform="translate(432.22,1147.83)rotate(0)"><text style="" x="15.00" y="3.07">V_hartwegii_8</text></g><g transform="translate(432.22,1138.48)rotate(0)"><text style="" x="15.00" y="3.07">V_hartwegii_7</text></g><g transform="translate(432.22,1129.12)rotate(0)"><text style="" x="15.00" y="3.07">V_hartwegii_6</text></g><g transform="translate(432.22,1119.77)rotate(0)"><text style="" x="15.00" y="3.07">V_hartwegii_5</text></g><g transform="translate(432.22,1110.42)rotate(0)"><text style="" x="15.00" y="3.07">V_hartwegii_4</text></g><g transform="translate(432.22,1101.07)rotate(0)"><text style="" x="15.00" y="3.07">V_hartwegii_3</text></g><g transform="translate(432.22,1091.72)rotate(0)"><text style="" x="15.00" y="3.07">V_hartwegii_2</text></g><g transform="translate(432.22,1082.36)rotate(0)"><text style="" x="15.00" y="3.07">V_hartwegii_1</text></g><g transform="translate(432.22,1073.01)rotate(0)"><text style="" x="15.00" y="3.07">V_obtusatum_3</text></g><g transform="translate(432.22,1063.66)rotate(0)"><text style="" x="15.00" y="3.07">V_obtusatum_2</text></g><g transform="translate(432.22,1054.31)rotate(0)"><text style="" x="15.00" y="3.07">V_obtusatum_1</text></g><g transform="translate(432.22,1044.96)rotate(0)"><text style="" x="15.00" y="3.07">V_villosum</text></g><g transform="translate(432.22,1035.60)rotate(0)"><text style="" x="15.00" y="3.07">V_alpinum</text></g><g transform="translate(432.22,1026.25)rotate(0)"><text style="" x="15.00" y="3.07">V_stellato-tomentosum</text></g><g transform="translate(432.22,1016.90)rotate(0)"><text style="" x="15.00" y="3.07">V_jucundum_17</text></g><g transform="translate(432.22,1007.55)rotate(0)"><text style="" x="15.00" y="3.07">V_jucundum_16</text></g><g transform="translate(432.22,998.20)rotate(0)"><text style="" x="15.00" y="3.07">V_jucundum_15</text></g><g transform="translate(432.22,988.84)rotate(0)"><text style="" x="15.00" y="3.07">V_jucundum_14</text></g><g transform="translate(432.22,979.49)rotate(0)"><text style="" x="15.00" y="3.07">V_jucundum_13</text></g><g transform="translate(432.22,970.14)rotate(0)"><text style="" x="15.00" y="3.07">V_jucundum_12</text></g><g transform="translate(432.22,960.79)rotate(0)"><text style="" x="15.00" y="3.07">V_jucundum_11</text></g><g transform="translate(432.22,951.44)rotate(0)"><text style="" x="15.00" y="3.07">V_jucundum_10</text></g><g transform="translate(432.22,942.08)rotate(0)"><text style="" x="15.00" y="3.07">V_jucundum_9</text></g><g transform="translate(432.22,932.73)rotate(0)"><text style="" x="15.00" y="3.07">V_jucundum_8</text></g><g transform="translate(432.22,923.38)rotate(0)"><text style="" x="15.00" y="3.07">V_jucundum_7</text></g><g transform="translate(432.22,914.03)rotate(0)"><text style="" x="15.00" y="3.07">V_jucundum_6</text></g><g transform="translate(432.22,904.68)rotate(0)"><text style="" x="15.00" y="3.07">V_jucundum_5</text></g><g transform="translate(432.22,895.32)rotate(0)"><text style="" x="15.00" y="3.07">V_jucundum_4</text></g><g transform="translate(432.22,885.97)rotate(0)"><text style="" x="15.00" y="3.07">V_jucundum_3</text></g><g transform="translate(432.22,876.62)rotate(0)"><text style="" x="15.00" y="3.07">V_jucundum_2</text></g><g transform="translate(432.22,867.27)rotate(0)"><text style="" x="15.00" y="3.07">V_jucundum_1</text></g><g transform="translate(432.22,857.92)rotate(0)"><text style="" x="15.00" y="3.07">V_lautum_14</text></g><g transform="translate(432.22,848.56)rotate(0)"><text style="" x="15.00" y="3.07">V_lautum_13</text></g><g transform="translate(432.22,839.21)rotate(0)"><text style="" x="15.00" y="3.07">V_lautum_12</text></g><g transform="translate(432.22,829.86)rotate(0)"><text style="" x="15.00" y="3.07">V_lautum_11</text></g><g transform="translate(432.22,820.51)rotate(0)"><text style="" x="15.00" y="3.07">V_lautum_10</text></g><g transform="translate(432.22,811.16)rotate(0)"><text style="" x="15.00" y="3.07">V_lautum_9</text></g><g transform="translate(432.22,801.80)rotate(0)"><text style="" x="15.00" y="3.07">V_lautum_8</text></g><g transform="translate(432.22,792.45)rotate(0)"><text style="" x="15.00" y="3.07">V_lautum_7</text></g><g transform="translate(432.22,783.10)rotate(0)"><text style="" x="15.00" y="3.07">V_lautum_6</text></g><g transform="translate(432.22,773.75)rotate(0)"><text style="" x="15.00" y="3.07">V_lautum_5</text></g><g transform="translate(432.22,764.40)rotate(0)"><text style="" x="15.00" y="3.07">V_lautum_4</text></g><g transform="translate(432.22,755.04)rotate(0)"><text style="" x="15.00" y="3.07">V_lautum_3</text></g><g transform="translate(432.22,745.69)rotate(0)"><text style="" x="15.00" y="3.07">V_lautum_2</text></g><g transform="translate(432.22,736.34)rotate(0)"><text style="" x="15.00" y="3.07">V_lautum_1</text></g><g transform="translate(432.22,726.99)rotate(0)"><text style="" x="15.00" y="3.07">V_blandum_2</text></g><g transform="translate(432.22,717.64)rotate(0)"><text style="" x="15.00" y="3.07">V_blandum_1</text></g><g transform="translate(432.22,708.28)rotate(0)"><text style="" x="15.00" y="3.07">V_disjunctum_2</text></g><g transform="translate(432.22,698.93)rotate(0)"><text style="" x="15.00" y="3.07">V_disjunctum_1</text></g><g transform="translate(432.22,689.58)rotate(0)"><text style="" x="15.00" y="3.07">V_discolor</text></g><g transform="translate(432.22,680.23)rotate(0)"><text style="" x="15.00" y="3.07">V_new sp. 2_8</text></g><g transform="translate(432.22,670.88)rotate(0)"><text style="" x="15.00" y="3.07">V_new sp. 2_7</text></g><g transform="translate(432.22,661.52)rotate(0)"><text style="" x="15.00" y="3.07">V_new sp. 2_6</text></g><g transform="translate(432.22,652.17)rotate(0)"><text style="" x="15.00" y="3.07">V_new sp. 2_5</text></g><g transform="translate(432.22,642.82)rotate(0)"><text style="" x="15.00" y="3.07">V_new sp. 2_4</text></g><g transform="translate(432.22,633.47)rotate(0)"><text style="" x="15.00" y="3.07">V_new sp. 2_3</text></g><g transform="translate(432.22,624.12)rotate(0)"><text style="" x="15.00" y="3.07">V_new sp. 2_2</text></g><g transform="translate(432.22,614.76)rotate(0)"><text style="" x="15.00" y="3.07">V_new sp. 2_1</text></g><g transform="translate(432.22,605.41)rotate(0)"><text style="" x="15.00" y="3.07">V_membranaceum_2</text></g><g transform="translate(432.22,596.06)rotate(0)"><text style="" x="15.00" y="3.07">V_membranaceum_1</text></g><g transform="translate(432.22,586.71)rotate(0)"><text style="" x="15.00" y="3.07">V_new sp. 1_3</text></g><g transform="translate(432.22,577.36)rotate(0)"><text style="" x="15.00" y="3.07">V_new sp. 1_2</text></g><g transform="translate(432.22,568.00)rotate(0)"><text style="" x="15.00" y="3.07">V_new sp. 1_1</text></g><g transform="translate(432.22,558.65)rotate(0)"><text style="" x="15.00" y="3.07">V_acutifolium_7</text></g><g transform="translate(432.22,549.30)rotate(0)"><text style="" x="15.00" y="3.07">V_acutifolium_6</text></g><g transform="translate(432.22,539.95)rotate(0)"><text style="" x="15.00" y="3.07">V_acutifolium_5</text></g><g transform="translate(432.22,530.60)rotate(0)"><text style="" x="15.00" y="3.07">V_acutifolium_4</text></g><g transform="translate(432.22,521.24)rotate(0)"><text style="" x="15.00" y="3.07">V_acutifolium_3</text></g><g transform="translate(432.22,511.89)rotate(0)"><text style="" x="15.00" y="3.07">V_acutifolium_2</text></g><g transform="translate(432.22,502.54)rotate(0)"><text style="" x="15.00" y="3.07">V_acutifolium_1</text></g><g transform="translate(432.22,493.19)rotate(0)"><text style="" x="15.00" y="3.07">V_microphyllum_3</text></g><g transform="translate(432.22,483.84)rotate(0)"><text style="" x="15.00" y="3.07">V_microphyllum_2</text></g><g transform="translate(432.22,474.49)rotate(0)"><text style="" x="15.00" y="3.07">V_microphyllum_1</text></g><g transform="translate(432.22,465.13)rotate(0)"><text style="" x="15.00" y="3.07">V_fuscum_4</text></g><g transform="translate(432.22,455.78)rotate(0)"><text style="" x="15.00" y="3.07">V_fuscum_3</text></g><g transform="translate(432.22,446.43)rotate(0)"><text style="" x="15.00" y="3.07">V_fuscum_2</text></g><g transform="translate(432.22,437.08)rotate(0)"><text style="" x="15.00" y="3.07">V_fuscum_1</text></g><g transform="translate(432.22,427.73)rotate(0)"><text style="" x="15.00" y="3.07">V_sulcatum_4</text></g><g transform="translate(432.22,418.37)rotate(0)"><text style="" x="15.00" y="3.07">V_sulcatum_3</text></g><g transform="translate(432.22,409.02)rotate(0)"><text style="" x="15.00" y="3.07">V_sulcatum_2</text></g><g transform="translate(432.22,399.67)rotate(0)"><text style="" x="15.00" y="3.07">V_sulcatum_1</text></g><g transform="translate(432.22,390.32)rotate(0)"><text style="" x="15.00" y="3.07">V_microcarpum_8</text></g><g transform="translate(432.22,380.97)rotate(0)"><text style="" x="15.00" y="3.07">V_microcarpum_7</text></g><g transform="translate(432.22,371.61)rotate(0)"><text style="" x="15.00" y="3.07">V_microcarpum_6</text></g><g transform="translate(432.22,362.26)rotate(0)"><text style="" x="15.00" y="3.07">V_microcarpum_5</text></g><g transform="translate(432.22,352.91)rotate(0)"><text style="" x="15.00" y="3.07">V_microcarpum_4</text></g><g transform="translate(432.22,343.56)rotate(0)"><text style="" x="15.00" y="3.07">V_microcarpum_3</text></g><g transform="translate(432.22,334.21)rotate(0)"><text style="" x="15.00" y="3.07">V_microcarpum_2</text></g><g transform="translate(432.22,324.85)rotate(0)"><text style="" x="15.00" y="3.07">V_microcarpum_1</text></g><g transform="translate(432.22,315.50)rotate(0)"><text style="" x="15.00" y="3.07">V_caudatum_6</text></g><g transform="translate(432.22,306.15)rotate(0)"><text style="" x="15.00" y="3.07">V_caudatum_5</text></g><g transform="translate(432.22,296.80)rotate(0)"><text style="" x="15.00" y="3.07">V_caudatum_4</text></g><g transform="translate(432.22,287.45)rotate(0)"><text style="" x="15.00" y="3.07">V_caudatum_3</text></g><g transform="translate(432.22,278.09)rotate(0)"><text style="" x="15.00" y="3.07">V_caudatum_2</text></g><g transform="translate(432.22,268.74)rotate(0)"><text style="" x="15.00" y="3.07">V_caudatum_1</text></g><g transform="translate(432.22,259.39)rotate(0)"><text style="" x="15.00" y="3.07">V_hirsutum_4</text></g><g transform="translate(432.22,250.04)rotate(0)"><text style="" x="15.00" y="3.07">V_hirsutum_3</text></g><g transform="translate(432.22,240.69)rotate(0)"><text style="" x="15.00" y="3.07">V_hirsutum_2</text></g><g transform="translate(432.22,231.33)rotate(0)"><text style="" x="15.00" y="3.07">V_hirsutum_1</text></g><g transform="translate(432.22,221.98)rotate(0)"><text style="" x="15.00" y="3.07">V_ciliatum_4</text></g><g transform="translate(432.22,212.63)rotate(0)"><text style="" x="15.00" y="3.07">V_ciliatum_3</text></g><g transform="translate(432.22,203.28)rotate(0)"><text style="" x="15.00" y="3.07">V_ciliatum_2</text></g><g transform="translate(432.22,193.93)rotate(0)"><text style="" x="15.00" y="3.07">V_ciliatum_1</text></g><g transform="translate(432.22,184.57)rotate(0)"><text style="" x="15.00" y="3.07">V_tiliaefolium_6</text></g><g transform="translate(432.22,175.22)rotate(0)"><text style="" x="15.00" y="3.07">V_tiliaefolium_5</text></g><g transform="translate(432.22,165.87)rotate(0)"><text style="" x="15.00" y="3.07">V_tiliaefolium_4</text></g><g transform="translate(432.22,156.52)rotate(0)"><text style="" x="15.00" y="3.07">V_tiliaefolium_3</text></g><g transform="translate(432.22,147.17)rotate(0)"><text style="" x="15.00" y="3.07">V_tiliaefolium_2</text></g><g transform="translate(432.22,137.81)rotate(0)"><text style="" x="15.00" y="3.07">V_tiliaefolium_1</text></g><g transform="translate(432.22,128.46)rotate(0)"><text style="" x="15.00" y="3.07">V_loeseneri</text></g><g transform="translate(432.22,119.11)rotate(0)"><text style="" x="15.00" y="3.07">V_stenocalyx</text></g><g transform="translate(432.22,109.76)rotate(0)"><text style="" x="15.00" y="3.07">V_dentatum_6</text></g><g transform="translate(432.22,100.41)rotate(0)"><text style="" x="15.00" y="3.07">V_dentatum_5</text></g><g transform="translate(432.22,91.05)rotate(0)"><text style="" x="15.00" y="3.07">V_dentatum_4</text></g><g transform="translate(432.22,81.70)rotate(0)"><text style="" x="15.00" y="3.07">V_dentatum_3</text></g><g transform="translate(432.22,72.35)rotate(0)"><text style="" x="15.00" y="3.07">V_dentatum_2</text></g><g transform="translate(432.22,63.00)rotate(0)"><text style="" x="15.00" y="3.07">V_dentatum_1</text></g></g></g></g></g></svg>